<svg width="362" height="227" viewBox="0 0 362 227" fill="none" xmlns="http://www.w3.org/2000/svg">
<g clip-path="url(#clip0_185_692)">
<g opacity="0.7">
<path d="M361.107 211.112C361.107 218.655 354.936 224.826 347.393 224.826H16.4119C8.82315 224.826 2.69727 218.655 2.69727 211.112V15.2661C2.69727 7.67734 8.82315 1.55145 16.4119 1.55145H347.393C354.936 1.55145 361.107 7.67734 361.107 15.2661V211.112Z" fill="#595959"/>
</g>
<path d="M361.107 211.112C361.107 218.655 354.936 224.826 347.393 224.826H16.4119C8.82315 224.826 2.69727 218.655 2.69727 211.112V15.2661C2.69727 7.67734 8.82315 1.55145 16.4119 1.55145H347.393C354.936 1.55145 361.107 7.67734 361.107 15.2661V211.112Z" fill="url(#paint0_linear_185_692)"/>
<path d="M83.7052 97.5541C83.7052 101.303 80.688 104.366 76.8936 104.366H42.8355C39.0868 104.366 36.0696 101.303 36.0696 97.5541V73.3706C36.0696 69.6219 39.0868 66.559 42.8355 66.559H76.8936C80.688 66.559 83.7052 69.6219 83.7052 73.3706V97.5541Z" fill="url(#paint1_linear_185_692)"/>
<path style="mix-blend-mode:multiply" fill-rule="evenodd" clip-rule="evenodd" d="M78.9509 78.4907V90.8339H84.1625V91.7025H75.4308V104.366H74.5622V91.7025H67.6592C66.9277 94.9483 64.1848 97.417 60.7561 97.737V104.366H59.8875V97.7827C56.2303 97.737 53.213 95.1769 52.3902 91.7025H46.1728V104.366H45.3042V91.7025H36.5269V90.8339H45.3042V78.4907H36.5269V77.6221H45.3042V66.559H46.1728V77.6221H52.573C53.5788 74.4678 56.4588 72.182 59.8875 72.0905V66.559H60.7561V72.182C63.9562 72.4563 66.562 74.6506 67.4763 77.6221H74.5622V66.559H75.4308V77.6221H84.1625V78.4907H78.9509ZM52.2073 89.9653C52.2073 88.1367 52.8473 86.3538 54.0359 84.9366C52.8473 83.5194 52.2073 81.7822 52.2073 79.9536C52.2073 79.4355 52.253 78.9479 52.3444 78.4907H46.1728V90.8339H52.2987C52.253 90.5596 52.2073 90.2853 52.2073 89.9653ZM67.0191 89.9653C67.0191 88.2281 66.3334 86.5367 65.1448 85.2566L64.8705 84.9366L65.1448 84.6623C66.3334 83.3366 67.0191 81.6908 67.0191 79.9536C67.0191 76.1135 63.8648 72.9591 60.0247 72.9591C56.1845 72.9591 53.0759 76.1135 53.0759 79.9536C53.0759 81.6908 53.7159 83.3366 54.9502 84.6623L55.1788 84.9366L54.9502 85.2566C53.7159 86.5367 53.0759 88.2281 53.0759 89.9653C53.0759 93.8054 56.1845 96.9598 60.0247 96.9598C63.8648 96.9598 67.0191 93.8054 67.0191 89.9653ZM78.0823 78.4907H67.7506C67.842 78.9479 67.8877 79.4355 67.8877 79.9536C67.8877 81.7822 67.2477 83.5194 66.0591 84.9366C67.2477 86.3538 67.8877 88.1367 67.8877 89.9653C67.8877 90.2853 67.842 90.5596 67.7963 90.8339H78.0823V78.4907Z" fill="url(#paint2_linear_185_692)"/>
<path fill-rule="evenodd" clip-rule="evenodd" d="M46.127 160.093H43.0641C42.3022 160.093 41.6164 159.956 41.0069 159.682C40.4278 159.438 39.9707 159.042 39.6354 158.493C39.3002 157.914 39.1326 157.198 39.1326 156.344V147.933C39.1326 147.11 39.3002 146.409 39.6354 145.83C39.9707 145.281 40.4278 144.854 41.0069 144.55C41.6164 144.245 42.3022 144.093 43.0641 144.093H46.127C47.0109 144.093 47.7271 144.26 48.2757 144.595C48.8547 144.9 49.2662 145.342 49.51 145.921C49.7843 146.5 49.9214 147.171 49.9214 147.933V156.344C49.9214 157.624 49.571 158.569 48.87 159.179C48.1995 159.788 47.2852 160.093 46.127 160.093ZM43.3841 158.584H45.7156C46.5994 158.584 47.2395 158.356 47.6357 157.899C48.0319 157.472 48.23 156.878 48.23 156.116V148.07C48.23 147.247 48.0166 146.637 47.5899 146.241C47.1937 145.845 46.5994 145.647 45.807 145.647H43.3384C42.546 145.647 41.9365 145.86 41.5098 146.287C41.0526 146.714 40.824 147.308 40.824 148.07V156.116C40.824 156.939 41.0526 157.548 41.5098 157.944C41.9669 158.371 42.5917 158.584 43.3841 158.584ZM60.2074 160.093H57.1445C56.3826 160.093 55.6968 159.956 55.0873 159.682C54.5082 159.438 54.0358 159.042 53.6701 158.493C53.3653 157.914 53.213 157.198 53.213 156.344V147.933C53.213 147.11 53.3653 146.409 53.6701 145.83C54.0358 145.281 54.5082 144.854 55.0873 144.55C55.6968 144.245 56.3826 144.093 57.1445 144.093H60.2074C61.0913 144.093 61.8075 144.26 62.3561 144.595C62.9351 144.9 63.3466 145.342 63.5904 145.921C63.8647 146.5 64.0018 147.171 64.0018 147.933V156.344C64.0018 157.624 63.6513 158.569 62.9504 159.179C62.2494 159.788 61.3351 160.093 60.2074 160.093ZM57.4645 158.584H59.796C60.6798 158.584 61.3199 158.356 61.7161 157.899C62.0818 157.472 62.2646 156.878 62.2646 156.116V148.07C62.2646 147.247 62.0665 146.637 61.6703 146.241C61.2741 145.845 60.6798 145.647 59.8874 145.647H57.4188C56.6264 145.647 56.0168 145.86 55.5902 146.287C55.133 146.714 54.9044 147.308 54.9044 148.07V156.116C54.9044 156.939 55.133 157.548 55.5902 157.944C56.0473 158.371 56.6721 158.584 57.4645 158.584ZM74.2878 160.093H71.1792C70.4477 160.093 69.7772 159.956 69.1677 159.682C68.5886 159.438 68.1162 159.042 67.7505 158.493C67.4153 157.914 67.2476 157.198 67.2476 156.344V147.933C67.2476 147.11 67.4153 146.409 67.7505 145.83C68.1162 145.281 68.5886 144.854 69.1677 144.55C69.7772 144.245 70.4477 144.093 71.1792 144.093H74.2878C75.1717 144.093 75.8879 144.26 76.4365 144.595C76.985 144.9 77.3965 145.342 77.6708 145.921C77.9451 146.5 78.0822 147.171 78.0822 147.933V156.344C78.0822 157.624 77.7317 158.569 77.0308 159.179C76.3298 159.788 75.4155 160.093 74.2878 160.093ZM71.4992 158.584H73.8764C74.7602 158.584 75.4002 158.356 75.7964 157.899C76.1622 157.472 76.345 156.878 76.345 156.116V148.07C76.345 147.247 76.1469 146.637 75.7507 146.241C75.3241 145.845 74.7298 145.647 73.9678 145.647H71.4992C70.7068 145.647 70.0972 145.86 69.6706 146.287C69.2134 146.714 68.9848 147.308 68.9848 148.07V156.116C68.9848 156.939 69.2134 157.548 69.6706 157.944C70.1277 158.371 70.7373 158.584 71.4992 158.584ZM88.3225 160.093H85.2596C84.4976 160.093 83.8271 159.956 83.2481 159.682C82.6385 159.438 82.1661 159.042 81.8309 158.493C81.4957 157.914 81.328 157.198 81.328 156.344V147.933C81.328 147.11 81.4957 146.409 81.8309 145.83C82.1661 145.281 82.6385 144.854 83.2481 144.55C83.8271 144.245 84.4976 144.093 85.2596 144.093H88.3225C89.2368 144.093 89.9683 144.26 90.5169 144.595C91.0654 144.9 91.4769 145.342 91.7512 145.921C92.0255 146.5 92.1626 147.171 92.1626 147.933V156.344C92.1626 157.624 91.8121 158.569 91.1112 159.179C90.4102 159.788 89.4806 160.093 88.3225 160.093ZM85.5796 158.584H87.9568C88.8406 158.584 89.4654 158.356 89.8311 157.899C90.2273 157.472 90.4254 156.878 90.4254 156.116V148.07C90.4254 147.247 90.2121 146.637 89.7854 146.241C89.3892 145.845 88.7949 145.647 88.0025 145.647H85.5339C84.7719 145.647 84.1624 145.86 83.7052 146.287C83.2786 146.714 83.0652 147.308 83.0652 148.07V156.116C83.0652 156.939 83.2786 157.548 83.7052 157.944C84.1624 158.371 84.7872 158.584 85.5796 158.584Z" fill="#A5A5A5"/>
<path fill-rule="evenodd" clip-rule="evenodd" d="M124.301 159.636H121.238C120.476 159.636 119.79 159.499 119.18 159.224C118.601 158.981 118.144 158.584 117.809 158.036C117.474 157.457 117.306 156.741 117.306 155.887V147.476C117.306 146.653 117.474 145.952 117.809 145.373C118.144 144.824 118.601 144.397 119.18 144.093C119.79 143.788 120.476 143.635 121.238 143.635H124.301C125.184 143.635 125.901 143.803 126.449 144.138C127.028 144.443 127.44 144.885 127.684 145.464C127.958 146.043 128.095 146.714 128.095 147.476V155.887C128.095 157.167 127.745 158.112 127.044 158.722C126.373 159.331 125.459 159.636 124.301 159.636ZM121.558 158.127H123.889C124.773 158.127 125.413 157.899 125.809 157.441C126.205 157.015 126.404 156.421 126.404 155.659V147.613C126.404 146.79 126.19 146.18 125.764 145.784C125.367 145.388 124.773 145.19 123.981 145.19H121.512C120.72 145.19 120.11 145.403 119.683 145.83C119.226 146.256 118.998 146.851 118.998 147.613V155.659C118.998 156.481 119.226 157.091 119.683 157.487C120.141 157.914 120.765 158.127 121.558 158.127ZM138.381 159.636H135.318C134.556 159.636 133.87 159.499 133.261 159.224C132.682 158.981 132.209 158.584 131.844 158.036C131.539 157.457 131.387 156.741 131.387 155.887V147.476C131.387 146.653 131.539 145.952 131.844 145.373C132.209 144.824 132.682 144.397 133.261 144.093C133.87 143.788 134.556 143.635 135.318 143.635H138.381C139.265 143.635 139.981 143.803 140.53 144.138C141.109 144.443 141.52 144.885 141.764 145.464C142.038 146.043 142.175 146.714 142.175 147.476V155.887C142.175 157.167 141.825 158.112 141.124 158.722C140.423 159.331 139.509 159.636 138.381 159.636ZM135.638 158.127H137.97C138.853 158.127 139.493 157.899 139.89 157.441C140.255 157.015 140.438 156.421 140.438 155.659V147.613C140.438 146.79 140.24 146.18 139.844 145.784C139.448 145.388 138.853 145.19 138.061 145.19H135.592C134.8 145.19 134.19 145.403 133.764 145.83C133.307 146.256 133.078 146.851 133.078 147.613V155.659C133.078 156.481 133.307 157.091 133.764 157.487C134.221 157.914 134.846 158.127 135.638 158.127ZM152.461 159.636H149.353C148.621 159.636 147.951 159.499 147.341 159.224C146.762 158.981 146.29 158.584 145.924 158.036C145.589 157.457 145.421 156.741 145.421 155.887V147.476C145.421 146.653 145.589 145.952 145.924 145.373C146.29 144.824 146.762 144.397 147.341 144.093C147.951 143.788 148.621 143.635 149.353 143.635H152.461C153.345 143.635 154.061 143.803 154.61 144.138C155.159 144.443 155.57 144.885 155.844 145.464C156.119 146.043 156.256 146.714 156.256 147.476V155.887C156.256 157.167 155.905 158.112 155.204 158.722C154.503 159.331 153.589 159.636 152.461 159.636ZM149.673 158.127H152.05C152.934 158.127 153.574 157.899 153.97 157.441C154.336 157.015 154.519 156.421 154.519 155.659V147.613C154.519 146.79 154.321 146.18 153.924 145.784C153.498 145.388 152.903 145.19 152.141 145.19H149.673C148.88 145.19 148.271 145.403 147.844 145.83C147.387 146.256 147.158 146.851 147.158 147.613V155.659C147.158 156.481 147.387 157.091 147.844 157.487C148.301 157.914 148.911 158.127 149.673 158.127ZM166.496 159.636H163.433C162.671 159.636 162.001 159.499 161.422 159.224C160.812 158.981 160.34 158.584 160.004 158.036C159.669 157.457 159.502 156.741 159.502 155.887V147.476C159.502 146.653 159.669 145.952 160.004 145.373C160.34 144.824 160.812 144.397 161.422 144.093C162.001 143.788 162.671 143.635 163.433 143.635H166.496C167.41 143.635 168.142 143.803 168.69 144.138C169.239 144.443 169.65 144.885 169.925 145.464C170.199 146.043 170.336 146.714 170.336 147.476V155.887C170.336 157.167 169.986 158.112 169.285 158.722C168.584 159.331 167.654 159.636 166.496 159.636ZM163.753 158.127H166.13C167.014 158.127 167.639 157.899 168.005 157.441C168.401 157.015 168.599 156.421 168.599 155.659V147.613C168.599 146.79 168.386 146.18 167.959 145.784C167.563 145.388 166.968 145.19 166.176 145.19H163.707C162.946 145.19 162.336 145.403 161.879 145.83C161.452 146.256 161.239 146.851 161.239 147.613V155.659C161.239 156.481 161.452 157.091 161.879 157.487C162.336 157.914 162.961 158.127 163.753 158.127Z" fill="#A5A5A5"/>
<path fill-rule="evenodd" clip-rule="evenodd" d="M201.56 159.636H198.497C197.735 159.636 197.049 159.499 196.44 159.224C195.861 158.981 195.404 158.584 195.068 158.036C194.733 157.457 194.565 156.741 194.565 155.887V147.476C194.565 146.653 194.733 145.952 195.068 145.373C195.404 144.824 195.861 144.397 196.44 144.093C197.049 143.788 197.735 143.635 198.497 143.635H201.56C202.444 143.635 203.16 143.803 203.709 144.138C204.288 144.443 204.699 144.885 204.943 145.464C205.217 146.043 205.354 146.714 205.354 147.476V155.887C205.354 157.167 205.004 158.112 204.303 158.722C203.632 159.331 202.718 159.636 201.56 159.636ZM198.817 158.127H201.148C202.032 158.127 202.672 157.899 203.069 157.441C203.465 157.015 203.663 156.421 203.663 155.659V147.613C203.663 146.79 203.449 146.18 203.023 145.784C202.627 145.388 202.032 145.19 201.24 145.19H198.771C197.979 145.19 197.369 145.403 196.943 145.83C196.485 146.256 196.257 146.851 196.257 147.613V155.659C196.257 156.481 196.485 157.091 196.943 157.487C197.4 157.914 198.025 158.127 198.817 158.127ZM215.64 159.636H212.577C211.815 159.636 211.13 159.499 210.52 159.224C209.941 158.981 209.469 158.584 209.103 158.036C208.798 157.457 208.646 156.741 208.646 155.887V147.476C208.646 146.653 208.798 145.952 209.103 145.373C209.469 144.824 209.941 144.397 210.52 144.093C211.13 143.788 211.815 143.635 212.577 143.635H215.64C216.524 143.635 217.24 143.803 217.789 144.138C218.368 144.443 218.779 144.885 219.023 145.464C219.298 146.043 219.435 146.714 219.435 147.476V155.887C219.435 157.167 219.084 158.112 218.383 158.722C217.682 159.331 216.768 159.636 215.64 159.636ZM212.897 158.127H215.229C216.113 158.127 216.753 157.899 217.149 157.441C217.515 157.015 217.698 156.421 217.698 155.659V147.613C217.698 146.79 217.499 146.18 217.103 145.784C216.707 145.388 216.113 145.19 215.32 145.19H212.852C212.059 145.19 211.45 145.403 211.023 145.83C210.566 146.256 210.337 146.851 210.337 147.613V155.659C210.337 156.481 210.566 157.091 211.023 157.487C211.48 157.914 212.105 158.127 212.897 158.127ZM229.721 159.636H226.612C225.881 159.636 225.21 159.499 224.601 159.224C224.021 158.981 223.549 158.584 223.183 158.036C222.848 157.457 222.68 156.741 222.68 155.887V147.476C222.68 146.653 222.848 145.952 223.183 145.373C223.549 144.824 224.021 144.397 224.601 144.093C225.21 143.788 225.881 143.635 226.612 143.635H229.721C230.605 143.635 231.321 143.803 231.869 144.138C232.418 144.443 232.829 144.885 233.104 145.464C233.378 146.043 233.515 146.714 233.515 147.476V155.887C233.515 157.167 233.165 158.112 232.464 158.722C231.763 159.331 230.848 159.636 229.721 159.636ZM226.932 158.127H229.309C230.193 158.127 230.833 157.899 231.229 157.441C231.595 157.015 231.778 156.421 231.778 155.659V147.613C231.778 146.79 231.58 146.18 231.184 145.784C230.757 145.388 230.163 145.19 229.401 145.19H226.932C226.14 145.19 225.53 145.403 225.103 145.83C224.646 146.256 224.418 146.851 224.418 147.613V155.659C224.418 156.481 224.646 157.091 225.103 157.487C225.561 157.914 226.17 158.127 226.932 158.127ZM243.755 159.636H240.692C239.931 159.636 239.26 159.499 238.681 159.224C238.071 158.981 237.599 158.584 237.264 158.036C236.929 157.457 236.761 156.741 236.761 155.887V147.476C236.761 146.653 236.929 145.952 237.264 145.373C237.599 144.824 238.071 144.397 238.681 144.093C239.26 143.788 239.931 143.635 240.692 143.635H243.755C244.67 143.635 245.401 143.803 245.95 144.138C246.498 144.443 246.91 144.885 247.184 145.464C247.458 146.043 247.595 146.714 247.595 147.476V155.887C247.595 157.167 247.245 158.112 246.544 158.722C245.843 159.331 244.914 159.636 243.755 159.636ZM241.012 158.127H243.39C244.273 158.127 244.898 157.899 245.264 157.441C245.66 157.015 245.858 156.421 245.858 155.659V147.613C245.858 146.79 245.645 146.18 245.218 145.784C244.822 145.388 244.228 145.19 243.435 145.19H240.967C240.205 145.19 239.595 145.403 239.138 145.83C238.711 146.256 238.498 146.851 238.498 147.613V155.659C238.498 156.481 238.711 157.091 239.138 157.487C239.595 157.914 240.22 158.127 241.012 158.127Z" fill="#A5A5A5"/>
<path fill-rule="evenodd" clip-rule="evenodd" d="M276.991 159.636H273.928C273.166 159.636 272.48 159.499 271.87 159.224C271.291 158.981 270.834 158.584 270.499 158.036C270.164 157.457 269.996 156.741 269.996 155.887V147.476C269.996 146.653 270.164 145.952 270.499 145.373C270.834 144.824 271.291 144.397 271.87 144.093C272.48 143.788 273.166 143.635 273.928 143.635H276.991C277.874 143.635 278.591 143.803 279.139 144.138C279.718 144.443 280.13 144.885 280.374 145.464C280.648 146.043 280.785 146.714 280.785 147.476V155.887C280.785 157.167 280.435 158.112 279.734 158.722C279.063 159.331 278.149 159.636 276.991 159.636ZM274.248 158.127H276.579C277.463 158.127 278.103 157.899 278.499 157.441C278.895 157.015 279.094 156.421 279.094 155.659V147.613C279.094 146.79 278.88 146.18 278.453 145.784C278.057 145.388 277.463 145.19 276.671 145.19H274.202C273.41 145.19 272.8 145.403 272.373 145.83C271.916 146.256 271.688 146.851 271.688 147.613V155.659C271.688 156.481 271.916 157.091 272.373 157.487C272.83 157.914 273.455 158.127 274.248 158.127ZM291.071 159.636H288.008C287.246 159.636 286.56 159.499 285.951 159.224C285.372 158.981 284.899 158.584 284.534 158.036C284.229 157.457 284.077 156.741 284.077 155.887V147.476C284.077 146.653 284.229 145.952 284.534 145.373C284.899 144.824 285.372 144.397 285.951 144.093C286.56 143.788 287.246 143.635 288.008 143.635H291.071C291.955 143.635 292.671 143.803 293.22 144.138C293.799 144.443 294.21 144.885 294.454 145.464C294.728 146.043 294.865 146.714 294.865 147.476V155.887C294.865 157.167 294.515 158.112 293.814 158.722C293.113 159.331 292.199 159.636 291.071 159.636ZM288.328 158.127H290.66C291.543 158.127 292.183 157.899 292.58 157.441C292.945 157.015 293.128 156.421 293.128 155.659V147.613C293.128 146.79 292.93 146.18 292.534 145.784C292.138 145.388 291.543 145.19 290.751 145.19H288.282C287.49 145.19 286.88 145.403 286.454 145.83C285.997 146.256 285.768 146.851 285.768 147.613V155.659C285.768 156.481 285.997 157.091 286.454 157.487C286.911 157.914 287.536 158.127 288.328 158.127ZM305.151 159.636H302.043C301.311 159.636 300.641 159.499 300.031 159.224C299.452 158.981 298.98 158.584 298.614 158.036C298.279 157.457 298.111 156.741 298.111 155.887V147.476C298.111 146.653 298.279 145.952 298.614 145.373C298.98 144.824 299.452 144.397 300.031 144.093C300.641 143.788 301.311 143.635 302.043 143.635H305.151C306.035 143.635 306.751 143.803 307.3 144.138C307.849 144.443 308.26 144.885 308.534 145.464C308.809 146.043 308.946 146.714 308.946 147.476V155.887C308.946 157.167 308.595 158.112 307.894 158.722C307.193 159.331 306.279 159.636 305.151 159.636ZM302.363 158.127H304.74C305.624 158.127 306.264 157.899 306.66 157.441C307.026 157.015 307.209 156.421 307.209 155.659V147.613C307.209 146.79 307.01 146.18 306.614 145.784C306.188 145.388 305.593 145.19 304.831 145.19H302.363C301.57 145.19 300.961 145.403 300.534 145.83C300.077 146.256 299.848 146.851 299.848 147.613V155.659C299.848 156.481 300.077 157.091 300.534 157.487C300.991 157.914 301.601 158.127 302.363 158.127ZM319.186 159.636H316.123C315.361 159.636 314.691 159.499 314.112 159.224C313.502 158.981 313.03 158.584 312.694 158.036C312.359 157.457 312.192 156.741 312.192 155.887V147.476C312.192 146.653 312.359 145.952 312.694 145.373C313.03 144.824 313.502 144.397 314.112 144.093C314.691 143.788 315.361 143.635 316.123 143.635H319.186C320.1 143.635 320.832 143.803 321.38 144.138C321.929 144.443 322.34 144.885 322.615 145.464C322.889 146.043 323.026 146.714 323.026 147.476V155.887C323.026 157.167 322.676 158.112 321.975 158.722C321.274 159.331 320.344 159.636 319.186 159.636ZM316.443 158.127H318.82C319.704 158.127 320.329 157.899 320.695 157.441C321.091 157.015 321.289 156.421 321.289 155.659V147.613C321.289 146.79 321.076 146.18 320.649 145.784C320.253 145.388 319.658 145.19 318.866 145.19H316.397C315.635 145.19 315.026 145.403 314.569 145.83C314.142 146.256 313.929 146.851 313.929 147.613V155.659C313.929 156.481 314.142 157.091 314.569 157.487C315.026 157.914 315.651 158.127 316.443 158.127Z" fill="#A5A5A5"/>
<path d="M276.568 182.997C277.787 182.997 278.763 183.103 279.494 183.317C280.195 183.56 280.698 183.957 281.003 184.505C281.338 185.054 281.506 185.846 281.506 186.882C281.506 187.919 281.307 188.726 280.911 189.305C280.515 189.854 279.875 190.174 278.991 190.265V190.357C280.088 190.448 280.865 190.829 281.323 191.5C281.749 192.17 281.963 193.1 281.963 194.288C281.963 195.324 281.81 196.117 281.506 196.665C281.17 197.214 280.652 197.61 279.951 197.854C279.281 198.067 278.382 198.174 277.254 198.174C276.401 198.174 275.669 198.174 275.06 198.174C274.45 198.144 273.886 198.113 273.368 198.083C272.85 198.052 272.317 198.022 271.768 197.991L272.042 196.483C272.378 196.513 272.972 196.528 273.825 196.528C274.74 196.559 275.776 196.574 276.934 196.574C277.726 196.574 278.351 196.498 278.808 196.345C279.265 196.224 279.585 195.965 279.768 195.568C279.951 195.203 280.043 194.669 280.043 193.968C280.043 193.206 279.951 192.612 279.768 192.185C279.555 191.759 279.22 191.469 278.763 191.317C278.275 191.134 277.62 191.042 276.797 191.042H272.042V189.58H276.797C277.498 189.58 278.062 189.519 278.488 189.397C278.915 189.244 279.22 188.985 279.403 188.62C279.585 188.254 279.677 187.736 279.677 187.065C279.677 186.395 279.585 185.877 279.403 185.511C279.189 185.176 278.854 184.932 278.397 184.779C277.94 184.658 277.3 184.597 276.477 184.597C275.776 184.597 275.151 184.597 274.602 184.597C274.054 184.597 273.551 184.612 273.094 184.642C272.698 184.642 272.347 184.658 272.042 184.688L271.768 183.179C272.256 183.118 272.728 183.073 273.185 183.042C273.642 183.012 274.13 182.997 274.648 182.997C275.197 182.997 275.837 182.997 276.568 182.997ZM271.768 183.179H273.597V197.991H271.768V183.179ZM284.934 182.951H286.717V195.111C286.717 195.568 286.839 195.919 287.083 196.163C287.327 196.406 287.692 196.528 288.18 196.528H289.186L289.369 197.9C289.247 197.961 289.064 198.022 288.82 198.083C288.607 198.113 288.363 198.144 288.089 198.174C287.845 198.205 287.631 198.22 287.449 198.22C286.687 198.22 286.077 197.976 285.62 197.488C285.163 197.031 284.934 196.376 284.934 195.523V182.951ZM296.226 187.294C296.988 187.294 297.643 187.4 298.192 187.614C298.71 187.797 299.106 188.132 299.38 188.62C299.655 189.107 299.792 189.778 299.792 190.631V197.991H298.375L298.1 195.705L297.963 195.477V190.631C297.963 189.991 297.811 189.534 297.506 189.26C297.232 188.985 296.668 188.848 295.814 188.848C295.266 188.848 294.58 188.863 293.757 188.894C292.934 188.955 292.127 189.031 291.334 189.122L291.151 187.751C291.639 187.66 292.172 187.583 292.752 187.522C293.331 187.461 293.925 187.4 294.534 187.34C295.144 187.309 295.708 187.294 296.226 187.294ZM293.574 191.545H298.923V192.917L293.894 192.963C293.407 192.963 293.056 193.1 292.843 193.374C292.66 193.618 292.569 193.953 292.569 194.38V195.065C292.569 195.614 292.691 196.01 292.934 196.254C293.209 196.498 293.635 196.62 294.214 196.62C294.611 196.62 295.053 196.544 295.54 196.391C296.058 196.239 296.576 196.01 297.094 195.705C297.613 195.401 298.085 195.004 298.512 194.517V195.843C298.359 196.056 298.131 196.3 297.826 196.574C297.552 196.818 297.201 197.077 296.774 197.351C296.378 197.595 295.921 197.793 295.403 197.946C294.915 198.098 294.397 198.174 293.849 198.174C293.209 198.174 292.66 198.067 292.203 197.854C291.715 197.641 291.334 197.321 291.06 196.894C290.816 196.437 290.694 195.904 290.694 195.294V194.151C290.694 193.328 290.938 192.688 291.426 192.231C291.944 191.774 292.66 191.545 293.574 191.545ZM307.518 187.294C307.853 187.294 308.203 187.309 308.569 187.34C308.965 187.37 309.362 187.416 309.758 187.477C310.184 187.538 310.565 187.644 310.901 187.797L310.672 188.94C310.215 188.909 309.712 188.879 309.163 188.848C308.645 188.848 308.203 188.848 307.838 188.848C307.015 188.848 306.36 188.955 305.872 189.168C305.384 189.412 305.034 189.808 304.82 190.357C304.607 190.936 304.5 191.743 304.5 192.78C304.5 193.785 304.607 194.578 304.82 195.157C305.034 195.736 305.384 196.147 305.872 196.391C306.36 196.605 307.015 196.711 307.838 196.711C308.051 196.711 308.325 196.711 308.661 196.711C309.026 196.681 309.392 196.65 309.758 196.62C310.154 196.589 310.535 196.544 310.901 196.483L311.083 197.717C310.565 197.9 309.986 198.037 309.346 198.128C308.737 198.22 308.127 198.266 307.518 198.266C306.299 198.266 305.339 198.083 304.638 197.717C303.906 197.351 303.373 196.772 303.038 195.98C302.702 195.187 302.535 194.121 302.535 192.78C302.535 191.408 302.702 190.326 303.038 189.534C303.373 188.741 303.906 188.162 304.638 187.797C305.369 187.461 306.329 187.294 307.518 187.294ZM319.998 187.522H322.147L318.855 191.362C318.733 191.515 318.611 191.652 318.489 191.774C318.337 191.926 318.215 192.033 318.124 192.094V192.14C318.215 192.201 318.337 192.322 318.489 192.505C318.611 192.658 318.733 192.81 318.855 192.963L322.467 197.991H320.364L316.204 192.002L319.998 187.522ZM313.552 182.951H315.381L315.426 189.625C315.426 190.082 315.396 190.494 315.335 190.86C315.305 191.256 315.259 191.652 315.198 192.048C315.259 192.444 315.305 192.856 315.335 193.283C315.365 193.679 315.381 194.06 315.381 194.425V197.991H313.552V182.951ZM314.741 191.408H317.164V192.734H314.741V191.408Z" fill="#BFBBBB"/>
<path d="M268.851 91.9129L257.077 96.2699L252.72 108.044L248.363 96.2699L236.589 91.9129L248.363 87.5558L252.72 75.7818L257.077 87.5558L268.851 91.9129Z" fill="white"/>
<path d="M301.113 81.1553L285.414 86.9647L279.605 102.663L273.796 86.9647L258.097 81.1553L273.796 75.346L279.605 59.6472L285.414 75.346L301.113 81.1553Z" fill="white"/>
<path d="M322.621 91.9129L310.847 96.2699L306.49 108.044L302.133 96.2699L290.359 91.9129L302.133 87.5558L306.49 75.7818L310.847 87.5558L322.621 91.9129Z" fill="white"/>
</g>
<defs>
<linearGradient id="paint0_linear_185_692" x1="181.902" y1="338.658" x2="181.902" y2="-14.0833" gradientUnits="userSpaceOnUse">
<stop stop-color="#151515"/>
<stop offset="1" stop-color="#383838"/>
</linearGradient>
<linearGradient id="paint1_linear_185_692" x1="74.8364" y1="56.4101" x2="74.8364" y2="151.727" gradientUnits="userSpaceOnUse">
<stop stop-color="#FFCA3F"/>
<stop offset="0.097" stop-color="#CA7C22"/>
<stop offset="0.189" stop-color="#FDDB7A"/>
<stop offset="0.42" stop-color="#FFAD45"/>
<stop offset="0.554" stop-color="#A95F0D"/>
<stop offset="0.656" stop-color="#FFAD45"/>
<stop offset="0.79" stop-color="#FFFF9B"/>
<stop offset="1" stop-color="#FFCA3F"/>
</linearGradient>
<linearGradient id="paint2_linear_185_692" x1="75.2937" y1="33.3237" x2="75.2937" y2="152.641" gradientUnits="userSpaceOnUse">
<stop stop-color="#FFCA3F"/>
<stop offset="0.097" stop-color="#CA7C22"/>
<stop offset="0.189" stop-color="#FDDB7A"/>
<stop offset="0.42" stop-color="#FFAD45"/>
<stop offset="0.554" stop-color="#A95F0D"/>
<stop offset="0.656" stop-color="#FFAD45"/>
<stop offset="0.79" stop-color="#FFFF9B"/>
<stop offset="1" stop-color="#FFCA3F"/>
</linearGradient>
<clipPath id="clip0_185_692">
<rect width="362" height="227" fill="white"/>
</clipPath>
</defs>
</svg>
