<svg version="1.2" xmlns="http://www.w3.org/2000/svg" viewBox="0 0 802 494" width="802" height="494">
	<title>3-p </title>
	<defs>
		<filter x="-50%" y="-50%" width="200%" height="200%" id="f1" ><feDropShadow dx="0" dy="0" stdDeviation="2.0833333333333335" flood-color="#ffffbd" flood-opacity="1.2"/></filter>
		<linearGradient id="g1" x1="163.7" y1="122.3" x2="163.7" y2="330.8" gradientUnits="userSpaceOnUse">
			<stop offset="0" stop-color="#ffca3f"/>
			<stop offset=".097" stop-color="#ca7c22"/>
			<stop offset=".189" stop-color="#fddb7a"/>
			<stop offset=".42" stop-color="#ffad45"/>
			<stop offset=".554" stop-color="#a95f0d"/>
			<stop offset=".656" stop-color="#ffad45"/>
			<stop offset=".79" stop-color="#ffff9b"/>
			<stop offset="1" stop-color="#ffca3f"/>
		</linearGradient>
		<linearGradient id="g2" x1="164.7" y1="71.8" x2="164.7" y2="332.8" gradientUnits="userSpaceOnUse">
			<stop offset="0" stop-color="#ffca3f"/>
			<stop offset=".097" stop-color="#ca7c22"/>
			<stop offset=".189" stop-color="#fddb7a"/>
			<stop offset=".42" stop-color="#ffad45"/>
			<stop offset=".554" stop-color="#a95f0d"/>
			<stop offset=".656" stop-color="#ffad45"/>
			<stop offset=".79" stop-color="#ffff9b"/>
			<stop offset="1" stop-color="#ffca3f"/>
		</linearGradient>
	</defs>
	<style>
		.s0 { filter: url(#f1);fill: #fdf016 } 
		.s1 { fill: url(#g1) } 
		.s2 { mix-blend-mode: multiply;fill: url(#g2) } 
		.s3 { fill: #a5a5a5 } 
		.s4 { fill: #bfbbbb } 
	</style>
	<g id="_Artboards_">
	</g>
	<g id="Layer 1">
		<g id="&lt;Group&gt;">
			<g id="&lt;Group&gt;">
				<g id="&lt;Group&gt;" style="opacity: .7">
					<g id="&lt;Group&gt;">
					</g>
				</g>
				<g id="&lt;Group&gt;">
					<path id="&lt;Path&gt;" class="s0" d="m789.9 460.7c0 16.5-13.5 30-30 30h-724c-16.6 0-30-13.5-30-30v-428.4c0-16.6 13.4-30 30-30h724c16.5 0 30 13.4 30 30z"/>
				</g>
				<g id="&lt;Group&gt;">
					<path id="&lt;Path&gt;" class="s1" d="m183.1 212.3c0 8.2-6.6 14.9-14.9 14.9h-74.5c-8.2 0-14.8-6.7-14.8-14.9v-52.9c0-8.2 6.6-14.9 14.8-14.9h74.5c8.3 0 14.9 6.7 14.9 14.9z"/>
					<path id="&lt;Compound Path&gt;" fill-rule="evenodd" class="s2" d="m172.7 170.6v27h11.4v1.9h-19.1v27.7h-1.9v-27.7h-15.1c-1.6 7.1-7.6 12.5-15.1 13.2v14.5h-1.9v-14.4c-8-0.1-14.6-5.7-16.4-13.3h-13.6v27.7h-1.9v-27.7h-19.2v-1.9h19.2v-27h-19.2v-1.9h19.2v-24.2h1.9v24.2h14c2.2-6.9 8.5-11.9 16-12.1v-12.1h1.9v12.3c7 0.6 12.7 5.4 14.7 11.9h15.5v-24.2h1.9v24.2h19.1v1.9zm-58.5 25.1c0-4 1.4-7.9 4-11-2.6-3.1-4-6.9-4-10.9q0-1.7 0.3-3.2h-13.5v27h13.4c-0.1-0.6-0.2-1.2-0.2-1.9zm32.4 0c0-3.8-1.5-7.5-4.1-10.3l-0.6-0.7 0.6-0.6c2.6-2.9 4.1-6.5 4.1-10.3 0-8.4-6.9-15.3-15.3-15.3-8.4 0-15.2 6.9-15.2 15.3 0 3.8 1.4 7.4 4.1 10.3l0.5 0.6-0.5 0.7c-2.7 2.8-4.1 6.5-4.1 10.3 0 8.4 6.8 15.3 15.2 15.3 8.4 0 15.3-6.9 15.3-15.3zm24.2-25.1h-22.6q0.3 1.5 0.3 3.2c0 4-1.4 7.8-4 10.9 2.6 3.1 4 7 4 11 0 0.7-0.1 1.3-0.2 1.9h22.5z"/>
					<path id="0000" class="s3" aria-label="0000"  d="m100.9 349.1h-6.7q-2.5 0-4.5-0.9-1.9-0.8-3-2.6-1.1-1.9-1.1-4.7v-18.4q0-2.7 1.1-4.6 1.1-1.8 3-2.8 2-1 4.5-1h6.7q2.9 0 4.7 1.1 1.9 1 2.7 2.9 0.9 1.9 0.9 4.4v18.4q0 4.2-2.3 6.2-2.2 2-6 2zm-6-3.3h5.1q2.9 0 4.2-1.5 1.3-1.4 1.3-3.9v-17.6q0-2.7-1.4-4-1.3-1.3-3.9-1.3h-5.4q-2.6 0-4 1.4-1.5 1.4-1.5 3.9v17.6q0 2.7 1.5 4 1.5 1.4 4.1 1.4zm36.8 3.3h-6.7q-2.5 0-4.5-0.9-1.9-0.8-3.1-2.6-1-1.9-1-4.7v-18.4q0-2.7 1-4.6 1.2-1.8 3.1-2.8 2-1 4.5-1h6.7q2.9 0 4.7 1.1 1.9 1 2.7 2.9 0.9 1.9 0.9 4.4v18.4q0 4.2-2.3 6.2-2.3 2-6 2zm-6-3.3h5.1q2.9 0 4.2-1.5 1.2-1.4 1.2-3.9v-17.6q0-2.7-1.3-4-1.3-1.3-3.9-1.3h-5.4q-2.6 0-4 1.4-1.5 1.4-1.5 3.9v17.6q0 2.7 1.5 4 1.5 1.4 4.1 1.4zm36.8 3.3h-6.8q-2.4 0-4.4-0.9-1.9-0.8-3.1-2.6-1.1-1.9-1.1-4.7v-18.4q0-2.7 1.1-4.6 1.2-1.8 3.1-2.8 2-1 4.4-1h6.8q2.9 0 4.7 1.1 1.8 1 2.7 2.9 0.9 1.9 0.9 4.4v18.4q0 4.2-2.3 6.2-2.3 2-6 2zm-6.1-3.3h5.2q2.9 0 4.2-1.5 1.2-1.4 1.2-3.9v-17.6q0-2.7-1.3-4-1.4-1.3-3.9-1.3h-5.4q-2.6 0-4 1.4-1.5 1.4-1.5 3.9v17.6q0 2.7 1.5 4 1.5 1.4 4 1.4zm36.8 3.3h-6.7q-2.5 0-4.4-0.9-2-0.8-3.1-2.6-1.1-1.9-1.1-4.7v-18.4q0-2.7 1.1-4.6 1.1-1.8 3.1-2.8 1.9-1 4.4-1h6.7q3 0 4.8 1.1 1.8 1 2.7 2.9 0.9 1.9 0.9 4.4v18.4q0 4.2-2.3 6.2-2.3 2-6.1 2zm-6-3.3h5.2q2.9 0 4.1-1.5 1.3-1.4 1.3-3.9v-17.6q0-2.7-1.4-4-1.3-1.3-3.9-1.3h-5.4q-2.5 0-4 1.4-1.4 1.4-1.4 3.9v17.6q0 2.7 1.4 4 1.5 1.4 4.1 1.4z"/>
					<path id="0000 copy" class="s3" aria-label="0000"  d="m271.9 348.1h-6.7q-2.5 0-4.5-0.9-1.9-0.8-3-2.6-1.1-1.9-1.1-4.7v-18.4q0-2.7 1.1-4.6 1.1-1.8 3-2.8 2-1 4.5-1h6.7q2.9 0 4.7 1.1 1.9 1 2.7 2.9 0.9 1.9 0.9 4.4v18.4q0 4.2-2.3 6.2-2.2 2-6 2zm-6-3.3h5.1q2.9 0 4.2-1.5 1.3-1.4 1.3-3.9v-17.6q0-2.7-1.4-4-1.3-1.3-3.9-1.3h-5.4q-2.6 0-4 1.4-1.5 1.4-1.5 3.9v17.6q0 2.7 1.5 4 1.5 1.4 4.1 1.4zm36.8 3.3h-6.7q-2.5 0-4.5-0.9-1.9-0.8-3.1-2.6-1-1.9-1-4.7v-18.4q0-2.7 1-4.6 1.2-1.8 3.1-2.8 2-1 4.5-1h6.7q2.9 0 4.7 1.1 1.9 1 2.7 2.9 0.9 1.9 0.9 4.4v18.4q0 4.2-2.3 6.2-2.3 2-6 2zm-6-3.3h5.1q2.9 0 4.2-1.5 1.2-1.4 1.2-3.9v-17.6q0-2.7-1.3-4-1.3-1.3-3.9-1.3h-5.4q-2.6 0-4 1.4-1.5 1.4-1.5 3.9v17.6q0 2.7 1.5 4 1.5 1.4 4.1 1.4zm36.8 3.3h-6.8q-2.4 0-4.4-0.9-1.9-0.8-3.1-2.6-1.1-1.9-1.1-4.7v-18.4q0-2.7 1.1-4.6 1.2-1.8 3.1-2.8 2-1 4.4-1h6.8q2.9 0 4.7 1.1 1.8 1 2.7 2.9 0.9 1.9 0.9 4.4v18.4q0 4.2-2.3 6.2-2.3 2-6 2zm-6.1-3.3h5.2q2.9 0 4.2-1.5 1.2-1.4 1.2-3.9v-17.6q0-2.7-1.3-4-1.4-1.3-3.9-1.3h-5.4q-2.6 0-4 1.4-1.5 1.4-1.5 3.9v17.6q0 2.7 1.5 4 1.5 1.4 4 1.4zm36.8 3.3h-6.7q-2.5 0-4.4-0.9-2-0.8-3.1-2.6-1.1-1.9-1.1-4.7v-18.4q0-2.7 1.1-4.6 1.1-1.8 3.1-2.8 1.9-1 4.4-1h6.7q3 0 4.8 1.1 1.8 1 2.7 2.9 0.9 1.9 0.9 4.4v18.4q0 4.2-2.3 6.2-2.3 2-6.1 2zm-6-3.3h5.2q2.9 0 4.1-1.5 1.3-1.4 1.3-3.9v-17.6q0-2.7-1.4-4-1.3-1.3-3.9-1.3h-5.4q-2.5 0-4 1.4-1.4 1.4-1.4 3.9v17.6q0 2.7 1.4 4 1.5 1.4 4.1 1.4z"/>
					<path id="0000 copy 2" class="s3" aria-label="0000"  d="m440.9 348.1h-6.7q-2.5 0-4.5-0.9-1.9-0.8-3-2.6-1.1-1.9-1.1-4.7v-18.4q0-2.7 1.1-4.6 1.1-1.8 3-2.8 2-1 4.5-1h6.7q2.9 0 4.7 1.1 1.9 1 2.7 2.9 0.9 1.9 0.9 4.4v18.4q0 4.2-2.3 6.2-2.2 2-6 2zm-6-3.3h5.1q2.9 0 4.2-1.5 1.3-1.4 1.3-3.9v-17.6q0-2.7-1.4-4-1.3-1.3-3.9-1.3h-5.4q-2.6 0-4 1.4-1.5 1.4-1.5 3.9v17.6q0 2.7 1.5 4 1.5 1.4 4.1 1.4zm36.8 3.3h-6.7q-2.5 0-4.5-0.9-1.9-0.8-3.1-2.6-1-1.9-1-4.7v-18.4q0-2.7 1-4.6 1.2-1.8 3.1-2.8 2-1 4.5-1h6.7q2.9 0 4.7 1.1 1.9 1 2.7 2.9 0.9 1.9 0.9 4.4v18.4q0 4.2-2.3 6.2-2.3 2-6 2zm-6-3.3h5.1q2.9 0 4.2-1.5 1.2-1.4 1.2-3.9v-17.6q0-2.7-1.3-4-1.3-1.3-3.9-1.3h-5.4q-2.6 0-4 1.4-1.5 1.4-1.5 3.9v17.6q0 2.7 1.5 4 1.5 1.4 4.1 1.4zm36.8 3.3h-6.8q-2.4 0-4.4-0.9-1.9-0.8-3.1-2.6-1.1-1.9-1.1-4.7v-18.4q0-2.7 1.1-4.6 1.2-1.8 3.1-2.8 2-1 4.4-1h6.8q2.9 0 4.7 1.1 1.8 1 2.7 2.9 0.9 1.9 0.9 4.4v18.4q0 4.2-2.3 6.2-2.3 2-6 2zm-6.1-3.3h5.2q2.9 0 4.2-1.5 1.2-1.4 1.2-3.9v-17.6q0-2.7-1.3-4-1.4-1.3-3.9-1.3h-5.4q-2.6 0-4 1.4-1.5 1.4-1.5 3.9v17.6q0 2.7 1.5 4 1.5 1.4 4 1.4zm36.8 3.3h-6.7q-2.5 0-4.4-0.9-2-0.8-3.1-2.6-1.1-1.9-1.1-4.7v-18.4q0-2.7 1.1-4.6 1.1-1.8 3.1-2.8 1.9-1 4.4-1h6.7q3 0 4.8 1.1 1.8 1 2.7 2.9 0.9 1.9 0.9 4.4v18.4q0 4.2-2.3 6.2-2.3 2-6.1 2zm-6-3.3h5.2q2.9 0 4.1-1.5 1.3-1.4 1.3-3.9v-17.6q0-2.7-1.4-4-1.3-1.3-3.9-1.3h-5.4q-2.5 0-4 1.4-1.4 1.4-1.4 3.9v17.6q0 2.7 1.4 4 1.5 1.4 4.1 1.4z"/>
					<path id="0000 copy 3" class="s3" aria-label="0000"  d="m605.9 348.1h-6.7q-2.5 0-4.5-0.9-1.9-0.8-3-2.6-1.1-1.9-1.1-4.7v-18.4q0-2.7 1.1-4.6 1.1-1.8 3-2.8 2-1 4.5-1h6.7q2.9 0 4.7 1.1 1.9 1 2.7 2.9 0.9 1.9 0.9 4.4v18.4q0 4.2-2.3 6.2-2.2 2-6 2zm-6-3.3h5.1q2.9 0 4.2-1.5 1.3-1.4 1.3-3.9v-17.6q0-2.7-1.4-4-1.3-1.3-3.9-1.3h-5.4q-2.6 0-4 1.4-1.5 1.4-1.5 3.9v17.6q0 2.7 1.5 4 1.5 1.4 4.1 1.4zm36.8 3.3h-6.7q-2.5 0-4.5-0.9-1.9-0.8-3.1-2.6-1-1.9-1-4.7v-18.4q0-2.7 1-4.6 1.2-1.8 3.1-2.8 2-1 4.5-1h6.7q2.9 0 4.7 1.1 1.9 1 2.7 2.9 0.9 1.9 0.9 4.4v18.4q0 4.2-2.3 6.2-2.3 2-6 2zm-6-3.3h5.1q2.9 0 4.2-1.5 1.2-1.4 1.2-3.9v-17.6q0-2.7-1.3-4-1.3-1.3-3.9-1.3h-5.4q-2.6 0-4 1.4-1.5 1.4-1.5 3.9v17.6q0 2.7 1.5 4 1.5 1.4 4.1 1.4zm36.8 3.3h-6.8q-2.4 0-4.4-0.9-1.9-0.8-3.1-2.6-1.1-1.9-1.1-4.7v-18.4q0-2.7 1.1-4.6 1.2-1.8 3.1-2.8 2-1 4.4-1h6.8q2.9 0 4.7 1.1 1.8 1 2.7 2.9 0.9 1.9 0.9 4.4v18.4q0 4.2-2.3 6.2-2.3 2-6 2zm-6.1-3.3h5.2q2.9 0 4.2-1.5 1.2-1.4 1.2-3.9v-17.6q0-2.7-1.3-4-1.4-1.3-3.9-1.3h-5.4q-2.6 0-4 1.4-1.5 1.4-1.5 3.9v17.6q0 2.7 1.5 4 1.5 1.4 4 1.4zm36.8 3.3h-6.7q-2.5 0-4.4-0.9-2-0.8-3.1-2.6-1.1-1.9-1.1-4.7v-18.4q0-2.7 1.1-4.6 1.1-1.8 3.1-2.8 1.9-1 4.4-1h6.7q3 0 4.8 1.1 1.8 1 2.7 2.9 0.9 1.9 0.9 4.4v18.4q0 4.2-2.3 6.2-2.3 2-6.1 2zm-6-3.3h5.2q2.9 0 4.1-1.5 1.3-1.4 1.3-3.9v-17.6q0-2.7-1.4-4-1.3-1.3-3.9-1.3h-5.4q-2.5 0-4 1.4-1.4 1.4-1.4 3.9v17.6q0 2.7 1.4 4 1.5 1.4 4.1 1.4z"/>
				</g>
				<g id="&lt;Group&gt;">
				</g>
				<g id="&lt;Group&gt;">
				</g>
				<g id="&lt;Group&gt;">
				</g>
				<g id="&lt;Group&gt;">
				</g>
				<g id="&lt;Group&gt;">
				</g>
				<g id="&lt;Group&gt;">
					<g id="&lt;Group&gt;">
					</g>
				</g>
				<path id="Text" class="s4" aria-label="Gold"  d="m654.5 401q1.6 0 3.1 0.1 1.6 0 3.1 0.3 1.4 0.2 2.8 0.5l-0.4 3.1q-1.5-0.1-3-0.2-1.5-0.1-2.8-0.1-1.4 0-2.6 0-2.6 0-4.5 0.5-1.8 0.5-2.8 1.9-1.1 1.4-1.6 4-0.5 2.6-0.5 6.9 0 4.8 0.6 7.6 0.7 2.9 2.3 4.1 1.5 1.3 4.1 1.3 1.8 0 3.2-0.5 1.5-0.5 2.8-1.3 1.3-0.9 2.5-1.8l0.6 2.6q-0.8 0.9-2.3 2-1.5 1.1-3.5 1.9-1.9 0.7-4.4 0.7-3.7 0-6-1.8-2.2-1.8-3.3-5.5-1-3.8-1-9.6 0-6.4 1.3-10.1 1.3-3.6 4.3-5.1 3-1.5 8-1.5zm5.8 14.2h4v18.8h-3l-0.6-4.8-0.4-0.9zm20.6-4.7q3.9 0 6.3 1.1 2.4 1.2 3.4 3.9 1 2.6 1 7 0 4.4-1 7-1 2.7-3.4 3.9-2.4 1.1-6.3 1.1-3.9 0-6.3-1.1-2.4-1.2-3.5-3.9-1-2.6-1-7 0-4.4 1-7 1.1-2.7 3.5-3.9 2.4-1.1 6.3-1.1zm0 3.3q-2.5 0-4 0.8-1.4 0.8-2 2.7-0.6 1.9-0.6 5.2 0 3.3 0.6 5.2 0.6 1.9 2 2.7 1.5 0.7 4 0.7 2.5 0 3.9-0.7 1.5-0.8 2.1-2.7 0.6-1.9 0.6-5.2 0-3.3-0.6-5.2-0.6-1.9-2.1-2.7-1.4-0.8-3.9-0.8zm17-12.8h4v26.6q0 1.5 0.8 2.3 0.8 0.8 2.3 0.8h2.2l0.5 3q-0.4 0.2-1.2 0.4-0.8 0.1-1.6 0.2-0.8 0-1.4 0-2.5 0-4.1-1.5-1.5-1.5-1.5-4.3zm21.6 9.5q2.2 0 4.4 0.6 2.2 0.5 4.2 1.8l-0.2 2.4q-2.2-0.6-3.9-1-1.7-0.4-3.6-0.4-2 0-3.2 0.7-1.2 0.7-1.7 2.5-0.6 1.9-0.6 5.3 0 3.3 0.5 5.2 0.6 1.9 1.7 2.6 1.2 0.8 3.1 0.8 1.3 0 2.4-0.3 1.1-0.4 2.4-1.2 1.2-0.8 2.9-2l0.4 2.8q-1.9 1.7-4.3 3-2.4 1.2-5.2 1.2-4.3 0-6.2-3.1-1.8-3-1.8-9 0-4.5 0.9-7.1 1-2.6 2.9-3.7 1.9-1.1 4.9-1.1zm7.9-9.5h4v32.9h-3.1l-0.5-4-0.4-0.3v-15.7l0.3-0.7q-0.2-1.3-0.3-2.6 0-1.2 0-2.5z"/>
			</g>
		</g>
	</g>
</svg>