<svg width="362" height="227" viewBox="0 0 362 227" fill="none" xmlns="http://www.w3.org/2000/svg">
<g clip-path="url(#clip0_185_653)">
<g clip-path="url(#clip1_185_653)">
<path d="M361.273 212.317C361.273 219.94 355.064 226.177 347.474 226.177H14.4619C6.82657 226.177 0.663086 219.94 0.663086 212.317V14.398C0.663086 6.72888 6.82657 0.538147 14.4619 0.538147H347.474C355.064 0.538147 361.273 6.72888 361.273 14.398V212.317Z" fill="url(#paint0_linear_185_653)"/>
<path d="M82.1685 97.5573C82.1685 101.346 79.1327 104.441 75.3151 104.441H41.0479C37.2762 104.441 34.2405 101.346 34.2405 97.5573V73.1177C34.2405 69.3294 37.2762 66.234 41.0479 66.234H75.3151C79.1327 66.234 82.1685 69.3294 82.1685 73.1177V97.5573Z" fill="url(#paint1_linear_185_653)"/>
<path style="mix-blend-mode:multiply" fill-rule="evenodd" clip-rule="evenodd" d="M77.3849 78.2921V90.7659H82.6285V91.6437H73.8432V104.441H72.9693V91.6437H66.0238C65.2879 94.9239 62.5281 97.4187 59.0784 97.7421V104.441H58.2045V97.7883C54.5248 97.7421 51.489 95.1549 50.6611 91.6437H44.4056V104.441H43.5317V91.6437H34.7004V90.7659H43.5317V78.2921H34.7004V77.4143H43.5317V66.234H44.4056V77.4143H50.8451C51.857 74.2265 54.7548 71.9166 58.2045 71.8242V66.234H59.0784V71.9165C62.2981 72.1937 64.9199 74.4113 65.8399 77.4143H72.9693V66.234H73.8432V77.4143H82.6285V78.2921H77.3849ZM50.4771 89.8882C50.4771 88.0402 51.1211 86.2384 52.317 84.8062C51.1211 83.374 50.4771 81.6184 50.4771 79.7705C50.4771 79.2469 50.5231 78.7541 50.6151 78.2921H44.4056V90.7659H50.5691C50.5231 90.4887 50.4771 90.2115 50.4771 89.8882ZM65.3799 89.8882C65.3799 88.1326 64.6899 86.4232 63.494 85.1296L63.2181 84.8062L63.494 84.529C64.6899 83.1892 65.3799 81.526 65.3799 79.7705C65.3799 75.8897 62.2062 72.7019 58.3425 72.7019C54.4788 72.7019 51.3511 75.8897 51.3511 79.7705C51.3511 81.526 51.995 83.1892 53.2369 84.529L53.4669 84.8062L53.2369 85.1296C51.995 86.4232 51.3511 88.1326 51.3511 89.8882C51.3511 93.7689 54.4788 96.9567 58.3425 96.9567C62.2062 96.9567 65.3799 93.7689 65.3799 89.8882ZM76.511 78.2921H66.1158C66.2078 78.7541 66.2538 79.2469 66.2538 79.7705C66.2538 81.6184 65.6099 83.374 64.414 84.8062C65.6099 86.2384 66.2538 88.0402 66.2538 89.8882C66.2538 90.2115 66.2078 90.4887 66.1618 90.7659H76.511V78.2921Z" fill="url(#paint2_linear_185_653)"/>
<path d="M44.3594 160.758H41.2777C40.5111 160.758 39.8211 160.62 39.2079 160.342C38.6252 160.096 38.1653 159.696 37.828 159.141C37.4907 158.556 37.322 157.832 37.322 156.97V148.469C37.322 147.638 37.4907 146.929 37.828 146.344C38.1653 145.79 38.6252 145.358 39.2079 145.05C39.8211 144.742 40.5111 144.588 41.2777 144.588H44.3594C45.2487 144.588 45.9693 144.758 46.5213 145.097C47.1039 145.405 47.5178 145.851 47.7632 146.436C48.0391 147.022 48.1771 147.699 48.1771 148.469V156.97C48.1771 158.263 47.8245 159.218 47.1192 159.834C46.4446 160.45 45.5247 160.758 44.3594 160.758ZM41.5997 159.234H43.9455C44.8347 159.234 45.4787 159.003 45.8773 158.541C46.2759 158.109 46.4753 157.509 46.4753 156.739V148.608C46.4753 147.776 46.2606 147.16 45.8313 146.76C45.4327 146.359 44.8347 146.159 44.0375 146.159H41.5537C40.7564 146.159 40.1431 146.375 39.7138 146.806C39.2539 147.237 39.0239 147.838 39.0239 148.608V156.739C39.0239 157.57 39.2539 158.186 39.7138 158.587C40.1738 159.018 40.8024 159.234 41.5997 159.234ZM58.5263 160.758H55.4445C54.6779 160.758 53.988 160.62 53.3747 160.342C52.7921 160.096 52.3168 159.696 51.9488 159.141C51.6422 158.556 51.4888 157.832 51.4888 156.97V148.469C51.4888 147.638 51.6422 146.929 51.9488 146.344C52.3168 145.79 52.7921 145.358 53.3747 145.05C53.988 144.742 54.6779 144.588 55.4445 144.588H58.5263C59.4155 144.588 60.1361 144.758 60.6881 145.097C61.2707 145.405 61.6847 145.851 61.93 146.436C62.206 147.022 62.3439 147.699 62.3439 148.469V156.97C62.3439 158.263 61.9913 159.218 61.286 159.834C60.5807 160.45 59.6608 160.758 58.5263 160.758ZM55.7665 159.234H58.1123C59.0016 159.234 59.6455 159.003 60.0441 158.541C60.4121 158.109 60.5961 157.509 60.5961 156.739V148.608C60.5961 147.776 60.3968 147.16 59.9981 146.76C59.5995 146.359 59.0015 146.159 58.2043 146.159H55.7205C54.9232 146.159 54.3099 146.375 53.8806 146.806C53.4207 147.237 53.1907 147.838 53.1907 148.608V156.739C53.1907 157.57 53.4207 158.186 53.8806 158.587C54.3406 159.018 54.9692 159.234 55.7665 159.234ZM72.6931 160.758H69.5653C68.8294 160.758 68.1548 160.62 67.5415 160.342C66.9589 160.096 66.4836 159.696 66.1156 159.141C65.7783 158.556 65.6097 157.832 65.6097 156.97V148.469C65.6097 147.638 65.7783 146.929 66.1156 146.344C66.4836 145.79 66.9589 145.358 67.5415 145.05C68.1548 144.742 68.8294 144.588 69.5653 144.588H72.6931C73.5823 144.588 74.3029 144.758 74.8549 145.097C75.4068 145.405 75.8208 145.851 76.0968 146.436C76.3728 147.022 76.5108 147.699 76.5108 148.469V156.97C76.5108 158.263 76.1581 159.218 75.4528 159.834C74.7476 160.45 73.8276 160.758 72.6931 160.758ZM69.8873 159.234H72.2791C73.1684 159.234 73.8123 159.003 74.2109 158.541C74.5789 158.109 74.7629 157.509 74.7629 156.739V148.608C74.7629 147.776 74.5636 147.16 74.165 146.76C73.7357 146.359 73.1377 146.159 72.3711 146.159H69.8873C69.09 146.159 68.4768 146.375 68.0475 146.806C67.5875 147.237 67.3575 147.838 67.3575 148.608V156.739C67.3575 157.57 67.5875 158.186 68.0475 158.587C68.5074 159.018 69.1207 159.234 69.8873 159.234ZM86.8139 160.758H83.7322C82.9656 160.758 82.2909 160.62 81.7083 160.342C81.095 160.096 80.6197 159.696 80.2824 159.141C79.9451 158.556 79.7765 157.832 79.7765 156.97V148.469C79.7765 147.638 79.9451 146.929 80.2824 146.344C80.6197 145.79 81.095 145.358 81.7083 145.05C82.2909 144.742 82.9656 144.588 83.7322 144.588H86.8139C87.7338 144.588 88.4698 144.758 89.0217 145.097C89.5737 145.405 89.9876 145.851 90.2636 146.436C90.5396 147.022 90.6776 147.699 90.6776 148.469V156.97C90.6776 158.263 90.3249 159.218 89.6197 159.834C88.9144 160.45 87.9791 160.758 86.8139 160.758ZM84.0541 159.234H86.4459C87.3352 159.234 87.9638 159.003 88.3318 158.541C88.7304 158.109 88.9297 157.509 88.9297 156.739V148.608C88.9297 147.776 88.7151 147.16 88.2858 146.76C87.8871 146.359 87.2892 146.159 86.4919 146.159H84.0081C83.2415 146.159 82.6283 146.375 82.1683 146.806C81.739 147.237 81.5243 147.838 81.5243 148.608V156.739C81.5243 157.57 81.739 158.186 82.1683 158.587C82.6283 159.018 83.2569 159.234 84.0541 159.234Z" fill="black"/>
<path d="M123.013 160.296H119.931C119.165 160.296 118.475 160.158 117.861 159.88C117.279 159.634 116.819 159.234 116.482 158.679C116.144 158.094 115.976 157.37 115.976 156.508V148.007C115.976 147.176 116.144 146.467 116.482 145.882C116.819 145.328 117.279 144.896 117.861 144.588C118.475 144.28 119.165 144.126 119.931 144.126H123.013C123.902 144.126 124.623 144.296 125.175 144.635C125.757 144.943 126.171 145.389 126.417 145.974C126.693 146.56 126.831 147.237 126.831 148.007V156.508C126.831 157.801 126.478 158.756 125.773 159.372C125.098 159.988 124.178 160.296 123.013 160.296ZM120.253 158.772H122.599C123.488 158.772 124.132 158.541 124.531 158.079C124.93 157.647 125.129 157.047 125.129 156.277V148.146C125.129 147.314 124.914 146.698 124.485 146.298C124.086 145.897 123.488 145.697 122.691 145.697H120.207C119.41 145.697 118.797 145.913 118.367 146.344C117.907 146.775 117.677 147.376 117.677 148.146V156.277C117.677 157.108 117.907 157.724 118.367 158.125C118.827 158.556 119.456 158.772 120.253 158.772ZM137.18 160.296H134.098C133.331 160.296 132.642 160.158 132.028 159.88C131.446 159.634 130.97 159.234 130.602 158.679C130.296 158.094 130.142 157.37 130.142 156.508V148.007C130.142 147.176 130.296 146.467 130.602 145.882C130.97 145.328 131.446 144.896 132.028 144.588C132.642 144.28 133.331 144.126 134.098 144.126H137.18C138.069 144.126 138.79 144.296 139.342 144.635C139.924 144.943 140.338 145.389 140.584 145.974C140.86 146.56 140.997 147.237 140.997 148.007V156.508C140.997 157.801 140.645 158.756 139.94 159.372C139.234 159.988 138.314 160.296 137.18 160.296ZM134.42 158.772H136.766C137.655 158.772 138.299 158.541 138.698 158.079C139.066 157.647 139.25 157.047 139.25 156.277V148.146C139.25 147.314 139.05 146.698 138.652 146.298C138.253 145.897 137.655 145.697 136.858 145.697H134.374C133.577 145.697 132.964 145.913 132.534 146.344C132.074 146.775 131.844 147.376 131.844 148.146V156.277C131.844 157.108 132.074 157.724 132.534 158.125C132.994 158.556 133.623 158.772 134.42 158.772ZM151.347 160.296H148.219C147.483 160.296 146.808 160.158 146.195 159.88C145.612 159.634 145.137 159.234 144.769 158.679C144.432 158.094 144.263 157.37 144.263 156.508V148.007C144.263 147.176 144.432 146.467 144.769 145.882C145.137 145.328 145.612 144.896 146.195 144.588C146.808 144.28 147.483 144.126 148.219 144.126H151.347C152.236 144.126 152.957 144.296 153.508 144.635C154.06 144.943 154.474 145.389 154.75 145.974C155.026 146.56 155.164 147.237 155.164 148.007V156.508C155.164 157.801 154.812 158.756 154.106 159.372C153.401 159.988 152.481 160.296 151.347 160.296ZM148.541 158.772H150.933C151.822 158.772 152.466 158.541 152.865 158.079C153.232 157.647 153.416 157.047 153.416 156.277V148.146C153.416 147.314 153.217 146.698 152.819 146.298C152.389 145.897 151.791 145.697 151.025 145.697H148.541C147.744 145.697 147.13 145.913 146.701 146.344C146.241 146.775 146.011 147.376 146.011 148.146V156.277C146.011 157.108 146.241 157.724 146.701 158.125C147.161 158.556 147.774 158.772 148.541 158.772ZM165.467 160.296H162.386C161.619 160.296 160.945 160.158 160.362 159.88C159.749 159.634 159.273 159.234 158.936 158.679C158.599 158.094 158.43 157.37 158.43 156.508V148.007C158.43 147.176 158.599 146.467 158.936 145.882C159.273 145.328 159.749 144.896 160.362 144.588C160.945 144.28 161.619 144.126 162.386 144.126H165.467C166.387 144.126 167.123 144.296 167.675 144.635C168.227 144.943 168.641 145.389 168.917 145.974C169.193 146.56 169.331 147.237 169.331 148.007V156.508C169.331 157.801 168.978 158.756 168.273 159.372C167.568 159.988 166.633 160.296 165.467 160.296ZM162.708 158.772H165.099C165.989 158.772 166.617 158.541 166.985 158.079C167.384 157.647 167.583 157.047 167.583 156.277V148.146C167.583 147.314 167.369 146.698 166.939 146.298C166.541 145.897 165.943 145.697 165.145 145.697H162.662C161.895 145.697 161.282 145.913 160.822 146.344C160.393 146.775 160.178 147.376 160.178 148.146V156.277C160.178 157.108 160.393 157.724 160.822 158.125C161.282 158.556 161.91 158.772 162.708 158.772Z" fill="black"/>
<path d="M200.746 160.296H197.665C196.898 160.296 196.208 160.158 195.595 159.88C195.012 159.634 194.552 159.234 194.215 158.679C193.878 158.094 193.709 157.37 193.709 156.508V148.007C193.709 147.176 193.878 146.467 194.215 145.882C194.552 145.328 195.012 144.896 195.595 144.588C196.208 144.28 196.898 144.126 197.665 144.126H200.746C201.636 144.126 202.356 144.296 202.908 144.635C203.491 144.943 203.905 145.389 204.15 145.974C204.426 146.56 204.564 147.237 204.564 148.007V156.508C204.564 157.801 204.211 158.756 203.506 159.372C202.832 159.988 201.912 160.296 200.746 160.296ZM197.987 158.772H200.332C201.222 158.772 201.866 158.541 202.264 158.079C202.663 157.647 202.862 157.047 202.862 156.277V148.146C202.862 147.314 202.648 146.698 202.218 146.298C201.82 145.897 201.222 145.697 200.424 145.697H197.941C197.143 145.697 196.53 145.913 196.101 146.344C195.641 146.775 195.411 147.376 195.411 148.146V156.277C195.411 157.108 195.641 157.724 196.101 158.125C196.561 158.556 197.189 158.772 197.987 158.772ZM214.913 160.296H211.831C211.065 160.296 210.375 160.158 209.762 159.88C209.179 159.634 208.704 159.234 208.336 158.679C208.029 158.094 207.876 157.37 207.876 156.508V148.007C207.876 147.176 208.029 146.467 208.336 145.882C208.704 145.328 209.179 144.896 209.762 144.588C210.375 144.28 211.065 144.126 211.831 144.126H214.913C215.802 144.126 216.523 144.296 217.075 144.635C217.658 144.943 218.072 145.389 218.317 145.974C218.593 146.56 218.731 147.237 218.731 148.007V156.508C218.731 157.801 218.378 158.756 217.673 159.372C216.968 159.988 216.048 160.296 214.913 160.296ZM212.153 158.772H214.499C215.389 158.772 216.032 158.541 216.431 158.079C216.799 157.647 216.983 157.047 216.983 156.277V148.146C216.983 147.314 216.784 146.698 216.385 146.298C215.986 145.897 215.389 145.697 214.591 145.697H212.107C211.31 145.697 210.697 145.913 210.268 146.344C209.808 146.775 209.578 147.376 209.578 148.146V156.277C209.578 157.108 209.808 157.724 210.268 158.125C210.728 158.556 211.356 158.772 212.153 158.772ZM229.08 160.296H225.952C225.216 160.296 224.542 160.158 223.928 159.88C223.346 159.634 222.871 159.234 222.503 158.679C222.165 158.094 221.997 157.37 221.997 156.508V148.007C221.997 147.176 222.165 146.467 222.503 145.882C222.871 145.328 223.346 144.896 223.928 144.588C224.542 144.28 225.216 144.126 225.952 144.126H229.08C229.969 144.126 230.69 144.296 231.242 144.635C231.794 144.943 232.208 145.389 232.484 145.974C232.76 146.56 232.898 147.237 232.898 148.007V156.508C232.898 157.801 232.545 158.756 231.84 159.372C231.135 159.988 230.215 160.296 229.08 160.296ZM226.274 158.772H228.666C229.555 158.772 230.199 158.541 230.598 158.079C230.966 157.647 231.15 157.047 231.15 156.277V148.146C231.15 147.314 230.951 146.698 230.552 146.298C230.123 145.897 229.525 145.697 228.758 145.697H226.274C225.477 145.697 224.864 145.913 224.434 146.344C223.974 146.775 223.744 147.376 223.744 148.146V156.277C223.744 157.108 223.974 157.724 224.434 158.125C224.894 158.556 225.508 158.772 226.274 158.772ZM243.201 160.296H240.119C239.353 160.296 238.678 160.158 238.095 159.88C237.482 159.634 237.007 159.234 236.669 158.679C236.332 158.094 236.163 157.37 236.163 156.508V148.007C236.163 147.176 236.332 146.467 236.669 145.882C237.007 145.328 237.482 144.896 238.095 144.588C238.678 144.28 239.353 144.126 240.119 144.126H243.201C244.121 144.126 244.857 144.296 245.409 144.635C245.961 144.943 246.375 145.389 246.651 145.974C246.927 146.56 247.065 147.237 247.065 148.007V156.508C247.065 157.801 246.712 158.756 246.007 159.372C245.301 159.988 244.366 160.296 243.201 160.296ZM240.441 158.772H242.833C243.722 158.772 244.351 158.541 244.719 158.079C245.117 157.647 245.317 157.047 245.317 156.277V148.146C245.317 147.314 245.102 146.698 244.673 146.298C244.274 145.897 243.676 145.697 242.879 145.697H240.395C239.628 145.697 239.015 145.913 238.555 146.344C238.126 146.775 237.911 147.376 237.911 148.146V156.277C237.911 157.108 238.126 157.724 238.555 158.125C239.015 158.556 239.644 158.772 240.441 158.772Z" fill="black"/>
<path d="M276.64 160.296H273.558C272.792 160.296 272.102 160.158 271.489 159.88C270.906 159.634 270.446 159.234 270.109 158.679C269.771 158.094 269.603 157.37 269.603 156.508V148.007C269.603 147.176 269.771 146.467 270.109 145.882C270.446 145.328 270.906 144.896 271.489 144.588C272.102 144.28 272.792 144.126 273.558 144.126H276.64C277.529 144.126 278.25 144.296 278.802 144.635C279.385 144.943 279.799 145.389 280.044 145.974C280.32 146.56 280.458 147.237 280.458 148.007V156.508C280.458 157.801 280.105 158.756 279.4 159.372C278.725 159.988 277.805 160.296 276.64 160.296ZM273.88 158.772H276.226C277.116 158.772 277.759 158.541 278.158 158.079C278.557 157.647 278.756 157.047 278.756 156.277V148.146C278.756 147.314 278.541 146.698 278.112 146.298C277.713 145.897 277.116 145.697 276.318 145.697H273.834C273.037 145.697 272.424 145.913 271.995 146.344C271.535 146.775 271.305 147.376 271.305 148.146V156.277C271.305 157.108 271.535 157.724 271.995 158.125C272.455 158.556 273.083 158.772 273.88 158.772ZM290.807 160.296H287.725C286.959 160.296 286.269 160.158 285.655 159.88C285.073 159.634 284.598 159.234 284.23 158.679C283.923 158.094 283.77 157.37 283.77 156.508V148.007C283.77 147.176 283.923 146.467 284.23 145.882C284.598 145.328 285.073 144.896 285.655 144.588C286.269 144.28 286.959 144.126 287.725 144.126H290.807C291.696 144.126 292.417 144.296 292.969 144.635C293.551 144.943 293.965 145.389 294.211 145.974C294.487 146.56 294.625 147.237 294.625 148.007V156.508C294.625 157.801 294.272 158.756 293.567 159.372C292.862 159.988 291.942 160.296 290.807 160.296ZM288.047 158.772H290.393C291.282 158.772 291.926 158.541 292.325 158.079C292.693 157.647 292.877 157.047 292.877 156.277V148.146C292.877 147.314 292.678 146.698 292.279 146.298C291.88 145.897 291.282 145.697 290.485 145.697H288.001C287.204 145.697 286.591 145.913 286.161 146.344C285.701 146.775 285.471 147.376 285.471 148.146V156.277C285.471 157.108 285.701 157.724 286.161 158.125C286.621 158.556 287.25 158.772 288.047 158.772ZM304.974 160.296H301.846C301.11 160.296 300.436 160.158 299.822 159.88C299.24 159.634 298.764 159.234 298.396 158.679C298.059 158.094 297.89 157.37 297.89 156.508V148.007C297.89 147.176 298.059 146.467 298.396 145.882C298.764 145.328 299.24 144.896 299.822 144.588C300.436 144.28 301.11 144.126 301.846 144.126H304.974C305.863 144.126 306.584 144.296 307.136 144.635C307.688 144.943 308.102 145.389 308.378 145.974C308.654 146.56 308.792 147.237 308.792 148.007V156.508C308.792 157.801 308.439 158.756 307.734 159.372C307.028 159.988 306.108 160.296 304.974 160.296ZM302.168 158.772H304.56C305.449 158.772 306.093 158.541 306.492 158.079C306.86 157.647 307.044 157.047 307.044 156.277V148.146C307.044 147.314 306.844 146.698 306.446 146.298C306.016 145.897 305.418 145.697 304.652 145.697H302.168C301.371 145.697 300.758 145.913 300.328 146.344C299.868 146.775 299.638 147.376 299.638 148.146V156.277C299.638 157.108 299.868 157.724 300.328 158.125C300.788 158.556 301.401 158.772 302.168 158.772ZM319.095 160.296H316.013C315.246 160.296 314.572 160.158 313.989 159.88C313.376 159.634 312.901 159.234 312.563 158.679C312.226 158.094 312.057 157.37 312.057 156.508V148.007C312.057 147.176 312.226 146.467 312.563 145.882C312.901 145.328 313.376 144.896 313.989 144.588C314.572 144.28 315.246 144.126 316.013 144.126H319.095C320.015 144.126 320.751 144.296 321.302 144.635C321.854 144.943 322.268 145.389 322.544 145.974C322.82 146.56 322.958 147.237 322.958 148.007V156.508C322.958 157.801 322.606 158.756 321.9 159.372C321.195 159.988 320.26 160.296 319.095 160.296ZM316.335 158.772H318.727C319.616 158.772 320.245 158.541 320.613 158.079C321.011 157.647 321.21 157.047 321.21 156.277V148.146C321.21 147.314 320.996 146.698 320.567 146.298C320.168 145.897 319.57 145.697 318.773 145.697H316.289C315.522 145.697 314.909 145.913 314.449 146.344C314.02 146.775 313.805 147.376 313.805 148.146V156.277C313.805 157.108 314.02 157.724 314.449 158.125C314.909 158.556 315.538 158.772 316.335 158.772Z" fill="black"/>
<path d="M285.994 184.736C286.485 184.736 286.96 184.751 287.42 184.782C287.911 184.782 288.386 184.828 288.846 184.921C289.275 184.982 289.705 185.059 290.134 185.152L289.95 186.584C289.49 186.553 289.03 186.522 288.57 186.491C288.11 186.46 287.681 186.445 287.282 186.445C286.853 186.445 286.454 186.445 286.086 186.445C285.289 186.445 284.599 186.522 284.016 186.676C283.464 186.83 283.035 187.123 282.729 187.554C282.391 187.985 282.146 188.601 281.993 189.402C281.839 190.203 281.763 191.265 281.763 192.59C281.763 194.068 281.855 195.238 282.039 196.101C282.253 196.994 282.606 197.625 283.096 197.995C283.556 198.395 284.185 198.596 284.982 198.596C285.534 198.596 286.025 198.519 286.454 198.365C286.914 198.211 287.343 198.01 287.742 197.764C288.141 197.487 288.524 197.21 288.892 196.932L289.168 198.134C288.923 198.411 288.57 198.719 288.11 199.058C287.65 199.396 287.113 199.689 286.5 199.935C285.918 200.151 285.243 200.259 284.476 200.259C283.342 200.259 282.422 199.982 281.717 199.427C281.042 198.873 280.536 198.026 280.199 196.886C279.892 195.716 279.739 194.237 279.739 192.451C279.739 190.48 279.938 188.924 280.337 187.785C280.735 186.676 281.395 185.891 282.315 185.429C283.234 184.967 284.461 184.736 285.994 184.736ZM288.662 191.296H290.502V199.982H289.122L288.846 197.764L288.662 197.348V191.296ZM298.137 189.125C299.333 189.125 300.299 189.294 301.035 189.633C301.771 190.002 302.292 190.603 302.599 191.435C302.905 192.235 303.059 193.313 303.059 194.669C303.059 196.024 302.905 197.102 302.599 197.903C302.292 198.734 301.771 199.335 301.035 199.704C300.299 200.043 299.333 200.213 298.137 200.213C296.941 200.213 295.975 200.043 295.239 199.704C294.504 199.335 293.967 198.734 293.63 197.903C293.323 197.102 293.17 196.024 293.17 194.669C293.17 193.313 293.323 192.235 293.63 191.435C293.967 190.603 294.504 190.002 295.239 189.633C295.975 189.294 296.941 189.125 298.137 189.125ZM298.137 190.649C297.371 190.649 296.757 190.772 296.297 191.019C295.868 191.265 295.561 191.681 295.377 192.266C295.193 192.851 295.101 193.652 295.101 194.669C295.101 195.685 295.193 196.486 295.377 197.071C295.561 197.656 295.868 198.072 296.297 198.318C296.757 198.534 297.371 198.642 298.137 198.642C298.904 198.642 299.502 198.534 299.931 198.318C300.391 198.072 300.713 197.656 300.897 197.071C301.081 196.486 301.173 195.685 301.173 194.669C301.173 193.652 301.081 192.851 300.897 192.266C300.713 191.681 300.391 191.265 299.931 191.019C299.502 190.772 298.904 190.649 298.137 190.649ZM305.957 184.736H307.796V197.025C307.796 197.487 307.919 197.841 308.164 198.087C308.41 198.334 308.762 198.457 309.222 198.457H310.234L310.464 199.843C310.342 199.905 310.158 199.966 309.912 200.028C309.667 200.059 309.422 200.089 309.176 200.12C308.931 200.12 308.716 200.12 308.532 200.12C307.766 200.12 307.137 199.889 306.647 199.427C306.187 198.965 305.957 198.303 305.957 197.441V184.736ZM315.892 189.125C316.566 189.125 317.241 189.217 317.916 189.402C318.59 189.556 319.234 189.833 319.847 190.233L319.755 191.342C319.081 191.157 318.483 191.003 317.962 190.88C317.44 190.757 316.888 190.695 316.306 190.695C315.692 190.695 315.202 190.803 314.834 191.019C314.466 191.234 314.205 191.619 314.052 192.174C313.868 192.759 313.776 193.575 313.776 194.622C313.776 195.639 313.853 196.44 314.006 197.025C314.19 197.61 314.451 198.01 314.788 198.226C315.156 198.472 315.631 198.596 316.214 198.596C316.612 198.596 316.98 198.549 317.318 198.457C317.655 198.334 318.023 198.149 318.422 197.903C318.79 197.656 319.234 197.348 319.755 196.979L319.939 198.272C319.357 198.796 318.698 199.258 317.962 199.658C317.226 200.028 316.428 200.213 315.57 200.213C314.251 200.213 313.301 199.735 312.718 198.78C312.166 197.856 311.89 196.47 311.89 194.622C311.89 193.236 312.028 192.143 312.304 191.342C312.611 190.541 313.055 189.972 313.638 189.633C314.221 189.294 314.972 189.125 315.892 189.125ZM319.525 184.736H321.365V199.935H319.939L319.709 198.087L319.525 197.949V190.695L319.663 190.372C319.602 189.972 319.556 189.571 319.525 189.171C319.525 188.801 319.525 188.416 319.525 188.016V184.736Z" fill="black"/>
<path d="M317 84.3711L301.307 90.2041L295.5 105.967L289.693 90.2041L274 84.3711L289.693 78.5381L295.5 62.7755L301.307 78.5381L317 84.3711Z" fill="black"/>
</g>
</g>
<defs>
<linearGradient id="paint0_linear_185_653" x1="180.968" y1="0.538147" x2="180.968" y2="226.177" gradientUnits="userSpaceOnUse">
<stop stop-color="#FFCA3F"/>
<stop offset="1" stop-color="#DEA100"/>
</linearGradient>
<linearGradient id="paint1_linear_185_653" x1="73.2452" y1="55.9777" x2="73.2452" y2="152.304" gradientUnits="userSpaceOnUse">
<stop stop-color="#FFCA3F"/>
<stop offset="0.097" stop-color="#CA7C22"/>
<stop offset="0.189" stop-color="#FDDB7A"/>
<stop offset="0.42" stop-color="#FFAD45"/>
<stop offset="0.554" stop-color="#A95F0D"/>
<stop offset="0.656" stop-color="#FFAD45"/>
<stop offset="0.79" stop-color="#FFFF9B"/>
<stop offset="1" stop-color="#FFCA3F"/>
</linearGradient>
<linearGradient id="paint2_linear_185_653" x1="73.7052" y1="32.647" x2="73.7052" y2="153.228" gradientUnits="userSpaceOnUse">
<stop stop-color="#FFCA3F"/>
<stop offset="0.097" stop-color="#CA7C22"/>
<stop offset="0.189" stop-color="#FDDB7A"/>
<stop offset="0.42" stop-color="#FFAD45"/>
<stop offset="0.554" stop-color="#A95F0D"/>
<stop offset="0.656" stop-color="#FFAD45"/>
<stop offset="0.79" stop-color="#FFFF9B"/>
<stop offset="1" stop-color="#FFCA3F"/>
</linearGradient>
<clipPath id="clip0_185_653">
<rect width="362" height="226" fill="white" transform="translate(0 0.5)"/>
</clipPath>
<clipPath id="clip1_185_653">
<rect width="362" height="226" fill="white" transform="translate(0 0.5)"/>
</clipPath>
</defs>
</svg>
