<svg width="362" height="225" viewBox="0 0 362 225" fill="none" xmlns="http://www.w3.org/2000/svg">
<g clip-path="url(#clip0_185_672)">
<g clip-path="url(#clip1_185_672)">
<g opacity="0.7">
<path d="M361.102 210.904C361.102 218.493 354.892 224.702 347.303 224.702H14.2917C6.65639 224.702 0.49292 218.493 0.49292 210.904V13.8567C0.49292 6.22139 6.65639 0.0579224 14.2917 0.0579224H347.303C354.892 0.0579224 361.102 6.22139 361.102 13.8567V210.904Z" fill="#595959"/>
</g>
<path d="M361.102 210.904C361.102 218.493 354.892 224.702 347.303 224.702H14.2917C6.65639 224.702 0.49292 218.493 0.49292 210.904V13.8567C0.49292 6.22139 6.65639 0.0579224 14.2917 0.0579224H347.303C354.892 0.0579224 361.102 6.22139 361.102 13.8567V210.904Z" fill="url(#paint0_linear_185_672)"/>
<path d="M81.9979 96.6496C81.9979 100.421 78.9622 103.503 75.1445 103.503H40.8775C37.1058 103.503 34.0701 100.421 34.0701 96.6496V72.3177C34.0701 68.546 37.1058 65.4643 40.8775 65.4643H75.1445C78.9622 65.4643 81.9979 68.546 81.9979 72.3177V96.6496Z" fill="url(#paint1_linear_185_672)"/>
<path style="mix-blend-mode:multiply" fill-rule="evenodd" clip-rule="evenodd" d="M77.2143 77.4692V89.8882H82.4579V90.7621H73.6726V103.503H72.7987V90.7621H65.8533C65.1174 94.0278 62.3576 96.5116 58.9079 96.8336V103.503H58.034V96.8796C54.3543 96.8336 51.3186 94.2578 50.4906 90.7621H44.2352V103.503H43.3613V90.7621H34.53V89.8882H43.3613V77.4692H34.53V76.5953H43.3613V65.4643H44.2352V76.5953H50.6746C51.6865 73.4216 54.5843 71.1218 58.034 71.0298V65.4643H58.9079V71.1218C62.1276 71.3978 64.7494 73.6056 65.6693 76.5953H72.7987V65.4643H73.6726V76.5953H82.4579V77.4692H77.2143ZM50.3067 89.0142C50.3067 87.1744 50.9506 85.3805 52.1465 83.9547C50.9506 82.5288 50.3067 80.7809 50.3067 78.9411C50.3067 78.4198 50.3527 77.9292 50.4447 77.4692H44.2352V89.8882H50.3987C50.3527 89.6122 50.3067 89.3362 50.3067 89.0142ZM65.2094 89.0142C65.2094 87.2664 64.5194 85.5645 63.3235 84.2766L63.0476 83.9547L63.3235 83.6787C64.5194 82.3448 65.2094 80.6889 65.2094 78.9411C65.2094 75.0774 62.0357 71.9037 58.172 71.9037C54.3083 71.9037 51.1806 75.0774 51.1806 78.9411C51.1806 80.6889 51.8245 82.3448 53.0664 83.6787L53.2964 83.9547L53.0664 84.2766C51.8245 85.5645 51.1806 87.2664 51.1806 89.0142C51.1806 92.8779 54.3083 96.0516 58.172 96.0516C62.0357 96.0516 65.2094 92.8779 65.2094 89.0142ZM76.3404 77.4692H65.9453C66.0373 77.9292 66.0833 78.4198 66.0833 78.9411C66.0833 80.7809 65.4394 82.5288 64.2435 83.9547C65.4394 85.3805 66.0833 87.1744 66.0833 89.0142C66.0833 89.3362 66.0373 89.6122 65.9913 89.8882H76.3404V77.4692Z" fill="url(#paint2_linear_185_672)"/>
<path d="M44.1892 159.572H41.1075C40.3409 159.572 39.651 159.434 39.0377 159.158C38.4551 158.913 37.9951 158.514 37.6578 157.962C37.3205 157.38 37.1519 156.659 37.1519 155.8V147.337C37.1519 146.509 37.3205 145.804 37.6578 145.221C37.9951 144.669 38.4551 144.24 39.0377 143.933C39.651 143.627 40.3409 143.474 41.1075 143.474H44.1892C45.0785 143.474 45.7991 143.642 46.3511 143.979C46.9337 144.286 47.3476 144.731 47.593 145.313C47.8689 145.896 48.0069 146.571 48.0069 147.337V155.8C48.0069 157.088 47.6543 158.039 46.949 158.652C46.2744 159.265 45.3545 159.572 44.1892 159.572ZM41.4295 158.054H43.7753C44.6645 158.054 45.3085 157.824 45.7071 157.364C46.1057 156.935 46.3051 156.337 46.3051 155.57V147.475C46.3051 146.647 46.0904 146.034 45.6611 145.635C45.2625 145.237 44.6645 145.037 43.8673 145.037H41.3835C40.5862 145.037 39.9729 145.252 39.5437 145.681C39.0837 146.111 38.8537 146.709 38.8537 147.475V155.57C38.8537 156.398 39.0837 157.012 39.5437 157.41C40.0036 157.84 40.6322 158.054 41.4295 158.054ZM58.356 159.572H55.2743C54.5077 159.572 53.8177 159.434 53.2045 159.158C52.6219 158.913 52.1466 158.514 51.7786 157.962C51.472 157.38 51.3186 156.659 51.3186 155.8V147.337C51.3186 146.509 51.472 145.804 51.7786 145.221C52.1466 144.669 52.6219 144.24 53.2045 143.933C53.8177 143.627 54.5077 143.474 55.2743 143.474H58.356C59.2453 143.474 59.9659 143.642 60.5178 143.979C61.1004 144.286 61.5144 144.731 61.7597 145.313C62.0357 145.896 62.1737 146.571 62.1737 147.337V155.8C62.1737 157.088 61.8211 158.039 61.1158 158.652C60.4105 159.265 59.4906 159.572 58.356 159.572ZM55.5963 158.054H57.9421C58.8313 158.054 59.4753 157.824 59.8739 157.364C60.2419 156.935 60.4258 156.337 60.4258 155.57V147.475C60.4258 146.647 60.2265 146.034 59.8279 145.635C59.4293 145.237 58.8313 145.037 58.034 145.037H55.5503C54.753 145.037 54.1397 145.252 53.7104 145.681C53.2505 146.111 53.0205 146.709 53.0205 147.475V155.57C53.0205 156.398 53.2505 157.012 53.7104 157.41C54.1704 157.84 54.799 158.054 55.5963 158.054ZM72.5228 159.572H69.3951C68.6591 159.572 67.9845 159.434 67.3712 159.158C66.7886 158.913 66.3133 158.514 65.9454 157.962C65.6081 157.38 65.4394 156.659 65.4394 155.8V147.337C65.4394 146.509 65.6081 145.804 65.9454 145.221C66.3133 144.669 66.7886 144.24 67.3712 143.933C67.9845 143.627 68.6591 143.474 69.3951 143.474H72.5228C73.4121 143.474 74.1327 143.642 74.6846 143.979C75.2366 144.286 75.6505 144.731 75.9265 145.313C76.2025 145.896 76.3405 146.571 76.3405 147.337V155.8C76.3405 157.088 75.9878 158.039 75.2826 158.652C74.5773 159.265 73.6574 159.572 72.5228 159.572ZM69.717 158.054H72.1088C72.9981 158.054 73.642 157.824 74.0407 157.364C74.4086 156.935 74.5926 156.337 74.5926 155.57V147.475C74.5926 146.647 74.3933 146.034 73.9947 145.635C73.5654 145.237 72.9674 145.037 72.2008 145.037H69.717C68.9198 145.037 68.3065 145.252 67.8772 145.681C67.4172 146.111 67.1873 146.709 67.1873 147.475V155.57C67.1873 156.398 67.4172 157.012 67.8772 157.41C68.3372 157.84 68.9504 158.054 69.717 158.054ZM86.6436 159.572H83.5618C82.7952 159.572 82.1206 159.434 81.538 159.158C80.9247 158.913 80.4494 158.514 80.1121 157.962C79.7748 157.38 79.6062 156.659 79.6062 155.8V147.337C79.6062 146.509 79.7748 145.804 80.1121 145.221C80.4494 144.669 80.9247 144.24 81.538 143.933C82.1206 143.627 82.7952 143.474 83.5618 143.474H86.6436C87.5635 143.474 88.2994 143.642 88.8514 143.979C89.4033 144.286 89.8173 144.731 90.0933 145.313C90.3692 145.896 90.5072 146.571 90.5072 147.337V155.8C90.5072 157.088 90.1546 158.039 89.4493 158.652C88.7441 159.265 87.8088 159.572 86.6436 159.572ZM83.8838 158.054H86.2756C87.1649 158.054 87.7935 157.824 88.1614 157.364C88.5601 156.935 88.7594 156.337 88.7594 155.57V147.475C88.7594 146.647 88.5447 146.034 88.1154 145.635C87.7168 145.237 87.1189 145.037 86.3216 145.037H83.8378C83.0712 145.037 82.4579 145.252 81.998 145.681C81.5687 146.111 81.354 146.709 81.354 147.475V155.57C81.354 156.398 81.5687 157.012 81.998 157.41C82.4579 157.84 83.0865 158.054 83.8838 158.054Z" fill="#A5A5A5"/>
<path d="M122.842 159.112H119.761C118.994 159.112 118.304 158.974 117.691 158.698C117.108 158.453 116.648 158.054 116.311 157.502C115.974 156.92 115.805 156.199 115.805 155.34V146.877C115.805 146.049 115.974 145.344 116.311 144.761C116.648 144.209 117.108 143.78 117.691 143.474C118.304 143.167 118.994 143.014 119.761 143.014H122.842C123.732 143.014 124.452 143.182 125.004 143.52C125.587 143.826 126.001 144.271 126.246 144.853C126.522 145.436 126.66 146.111 126.66 146.877V155.34C126.66 156.628 126.307 157.579 125.602 158.192C124.927 158.806 124.008 159.112 122.842 159.112ZM120.083 157.594H122.428C123.318 157.594 123.962 157.364 124.36 156.904C124.759 156.475 124.958 155.877 124.958 155.11V147.015C124.958 146.187 124.743 145.574 124.314 145.175C123.916 144.777 123.318 144.577 122.52 144.577H120.037C119.239 144.577 118.626 144.792 118.197 145.221C117.737 145.651 117.507 146.249 117.507 147.015V155.11C117.507 155.938 117.737 156.552 118.197 156.95C118.657 157.38 119.285 157.594 120.083 157.594ZM137.009 159.112H133.927C133.161 159.112 132.471 158.974 131.858 158.698C131.275 158.453 130.8 158.054 130.432 157.502C130.125 156.92 129.972 156.199 129.972 155.34V146.877C129.972 146.049 130.125 145.344 130.432 144.761C130.8 144.209 131.275 143.78 131.858 143.474C132.471 143.167 133.161 143.014 133.927 143.014H137.009C137.898 143.014 138.619 143.182 139.171 143.52C139.754 143.826 140.167 144.271 140.413 144.853C140.689 145.436 140.827 146.111 140.827 146.877V155.34C140.827 156.628 140.474 157.579 139.769 158.192C139.064 158.806 138.144 159.112 137.009 159.112ZM134.249 157.594H136.595C137.484 157.594 138.128 157.364 138.527 156.904C138.895 156.475 139.079 155.877 139.079 155.11V147.015C139.079 146.187 138.88 145.574 138.481 145.175C138.082 144.777 137.484 144.577 136.687 144.577H134.203C133.406 144.577 132.793 144.792 132.363 145.221C131.904 145.651 131.674 146.249 131.674 147.015V155.11C131.674 155.938 131.904 156.552 132.363 156.95C132.823 157.38 133.452 157.594 134.249 157.594ZM151.176 159.112H148.048C147.312 159.112 146.638 158.974 146.024 158.698C145.442 158.453 144.966 158.054 144.598 157.502C144.261 156.92 144.092 156.199 144.092 155.34V146.877C144.092 146.049 144.261 145.344 144.598 144.761C144.966 144.209 145.442 143.78 146.024 143.474C146.638 143.167 147.312 143.014 148.048 143.014H151.176C152.065 143.014 152.786 143.182 153.338 143.52C153.89 143.826 154.304 144.271 154.58 144.853C154.856 145.436 154.994 146.111 154.994 146.877V155.34C154.994 156.628 154.641 157.579 153.936 158.192C153.23 158.806 152.31 159.112 151.176 159.112ZM148.37 157.594H150.762C151.651 157.594 152.295 157.364 152.694 156.904C153.062 156.475 153.246 155.877 153.246 155.11V147.015C153.246 146.187 153.046 145.574 152.648 145.175C152.218 144.777 151.62 144.577 150.854 144.577H148.37C147.573 144.577 146.96 144.792 146.53 145.221C146.07 145.651 145.84 146.249 145.84 147.015V155.11C145.84 155.938 146.07 156.552 146.53 156.95C146.99 157.38 147.604 157.594 148.37 157.594ZM165.297 159.112H162.215C161.448 159.112 160.774 158.974 160.191 158.698C159.578 158.453 159.103 158.054 158.765 157.502C158.428 156.92 158.259 156.199 158.259 155.34V146.877C158.259 146.049 158.428 145.344 158.765 144.761C159.103 144.209 159.578 143.78 160.191 143.474C160.774 143.167 161.448 143.014 162.215 143.014H165.297C166.217 143.014 166.953 143.182 167.504 143.52C168.056 143.826 168.47 144.271 168.746 144.853C169.022 145.436 169.16 146.111 169.16 146.877V155.34C169.16 156.628 168.808 157.579 168.102 158.192C167.397 158.806 166.462 159.112 165.297 159.112ZM162.537 157.594H164.929C165.818 157.594 166.447 157.364 166.815 156.904C167.213 156.475 167.412 155.877 167.412 155.11V147.015C167.412 146.187 167.198 145.574 166.769 145.175C166.37 144.777 165.772 144.577 164.975 144.577H162.491C161.724 144.577 161.111 144.792 160.651 145.221C160.222 145.651 160.007 146.249 160.007 147.015V155.11C160.007 155.938 160.222 156.552 160.651 156.95C161.111 157.38 161.74 157.594 162.537 157.594Z" fill="#A5A5A5"/>
<path d="M200.576 159.112H197.494C196.727 159.112 196.037 158.974 195.424 158.698C194.842 158.453 194.382 158.054 194.044 157.502C193.707 156.92 193.538 156.199 193.538 155.34V146.877C193.538 146.049 193.707 145.344 194.044 144.761C194.382 144.209 194.842 143.78 195.424 143.474C196.037 143.167 196.727 143.014 197.494 143.014H200.576C201.465 143.014 202.186 143.182 202.738 143.52C203.32 143.826 203.734 144.271 203.979 144.853C204.255 145.436 204.393 146.111 204.393 146.877V155.34C204.393 156.628 204.041 157.579 203.335 158.192C202.661 158.806 201.741 159.112 200.576 159.112ZM197.816 157.594H200.162C201.051 157.594 201.695 157.364 202.094 156.904C202.492 156.475 202.692 155.877 202.692 155.11V147.015C202.692 146.187 202.477 145.574 202.048 145.175C201.649 144.777 201.051 144.577 200.254 144.577H197.77C196.973 144.577 196.359 144.792 195.93 145.221C195.47 145.651 195.24 146.249 195.24 147.015V155.11C195.24 155.938 195.47 156.552 195.93 156.95C196.39 157.38 197.019 157.594 197.816 157.594ZM214.742 159.112H211.661C210.894 159.112 210.204 158.974 209.591 158.698C209.008 158.453 208.533 158.054 208.165 157.502C207.858 156.92 207.705 156.199 207.705 155.34V146.877C207.705 146.049 207.858 145.344 208.165 144.761C208.533 144.209 209.008 143.78 209.591 143.474C210.204 143.167 210.894 143.014 211.661 143.014H214.742C215.632 143.014 216.352 143.182 216.904 143.52C217.487 143.826 217.901 144.271 218.146 144.853C218.422 145.436 218.56 146.111 218.56 146.877V155.34C218.56 156.628 218.208 157.579 217.502 158.192C216.797 158.806 215.877 159.112 214.742 159.112ZM211.983 157.594H214.329C215.218 157.594 215.862 157.364 216.26 156.904C216.628 156.475 216.812 155.877 216.812 155.11V147.015C216.812 146.187 216.613 145.574 216.214 145.175C215.816 144.777 215.218 144.577 214.421 144.577H211.937C211.139 144.577 210.526 144.792 210.097 145.221C209.637 145.651 209.407 146.249 209.407 147.015V155.11C209.407 155.938 209.637 156.552 210.097 156.95C210.557 157.38 211.185 157.594 211.983 157.594ZM228.909 159.112H225.782C225.046 159.112 224.371 158.974 223.758 158.698C223.175 158.453 222.7 158.054 222.332 157.502C221.995 156.92 221.826 156.199 221.826 155.34V146.877C221.826 146.049 221.995 145.344 222.332 144.761C222.7 144.209 223.175 143.78 223.758 143.474C224.371 143.167 225.046 143.014 225.782 143.014H228.909C229.799 143.014 230.519 143.182 231.071 143.52C231.623 143.826 232.037 144.271 232.313 144.853C232.589 145.436 232.727 146.111 232.727 146.877V155.34C232.727 156.628 232.374 157.579 231.669 158.192C230.964 158.806 230.044 159.112 228.909 159.112ZM226.104 157.594H228.495C229.385 157.594 230.028 157.364 230.427 156.904C230.795 156.475 230.979 155.877 230.979 155.11V147.015C230.979 146.187 230.78 145.574 230.381 145.175C229.952 144.777 229.354 144.577 228.587 144.577H226.104C225.306 144.577 224.693 144.792 224.264 145.221C223.804 145.651 223.574 146.249 223.574 147.015V155.11C223.574 155.938 223.804 156.552 224.264 156.95C224.724 157.38 225.337 157.594 226.104 157.594ZM243.03 159.112H239.948C239.182 159.112 238.507 158.974 237.924 158.698C237.311 158.453 236.836 158.054 236.499 157.502C236.161 156.92 235.993 156.199 235.993 155.34V146.877C235.993 146.049 236.161 145.344 236.499 144.761C236.836 144.209 237.311 143.78 237.924 143.474C238.507 143.167 239.182 143.014 239.948 143.014H243.03C243.95 143.014 244.686 143.182 245.238 143.52C245.79 143.826 246.204 144.271 246.48 144.853C246.756 145.436 246.894 146.111 246.894 146.877V155.34C246.894 156.628 246.541 157.579 245.836 158.192C245.131 158.806 244.195 159.112 243.03 159.112ZM240.27 157.594H242.662C243.551 157.594 244.18 157.364 244.548 156.904C244.947 156.475 245.146 155.877 245.146 155.11V147.015C245.146 146.187 244.931 145.574 244.502 145.175C244.103 144.777 243.505 144.577 242.708 144.577H240.224C239.458 144.577 238.844 144.792 238.384 145.221C237.955 145.651 237.741 146.249 237.741 147.015V155.11C237.741 155.938 237.955 156.552 238.384 156.95C238.844 157.38 239.473 157.594 240.27 157.594Z" fill="#A5A5A5"/>
<path d="M276.469 159.112H273.387C272.621 159.112 271.931 158.974 271.317 158.698C270.735 158.453 270.275 158.054 269.938 157.502C269.6 156.92 269.432 156.199 269.432 155.34V146.877C269.432 146.049 269.6 145.344 269.938 144.761C270.275 144.209 270.735 143.78 271.317 143.474C271.931 143.167 272.621 143.014 273.387 143.014H276.469C277.358 143.014 278.079 143.182 278.631 143.52C279.213 143.826 279.627 144.271 279.873 144.853C280.149 145.436 280.287 146.111 280.287 146.877V155.34C280.287 156.628 279.934 157.579 279.229 158.192C278.554 158.806 277.634 159.112 276.469 159.112ZM273.709 157.594H276.055C276.944 157.594 277.588 157.364 277.987 156.904C278.386 156.475 278.585 155.877 278.585 155.11V147.015C278.585 146.187 278.37 145.574 277.941 145.175C277.542 144.777 276.944 144.577 276.147 144.577H273.663C272.866 144.577 272.253 144.792 271.823 145.221C271.363 145.651 271.133 146.249 271.133 147.015V155.11C271.133 155.938 271.363 156.552 271.823 156.95C272.283 157.38 272.912 157.594 273.709 157.594ZM290.636 159.112H287.554C286.787 159.112 286.098 158.974 285.484 158.698C284.902 158.453 284.426 158.054 284.058 157.502C283.752 156.92 283.598 156.199 283.598 155.34V146.877C283.598 146.049 283.752 145.344 284.058 144.761C284.426 144.209 284.902 143.78 285.484 143.474C286.098 143.167 286.787 143.014 287.554 143.014H290.636C291.525 143.014 292.246 143.182 292.798 143.52C293.38 143.826 293.794 144.271 294.04 144.853C294.315 145.436 294.453 146.111 294.453 146.877V155.34C294.453 156.628 294.101 157.579 293.396 158.192C292.69 158.806 291.77 159.112 290.636 159.112ZM287.876 157.594H290.222C291.111 157.594 291.755 157.364 292.154 156.904C292.522 156.475 292.706 155.877 292.706 155.11V147.015C292.706 146.187 292.506 145.574 292.108 145.175C291.709 144.777 291.111 144.577 290.314 144.577H287.83C287.033 144.577 286.42 144.792 285.99 145.221C285.53 145.651 285.3 146.249 285.3 147.015V155.11C285.3 155.938 285.53 156.552 285.99 156.95C286.45 157.38 287.079 157.594 287.876 157.594ZM304.803 159.112H301.675C300.939 159.112 300.264 158.974 299.651 158.698C299.068 158.453 298.593 158.054 298.225 157.502C297.888 156.92 297.719 156.199 297.719 155.34V146.877C297.719 146.049 297.888 145.344 298.225 144.761C298.593 144.209 299.068 143.78 299.651 143.474C300.264 143.167 300.939 143.014 301.675 143.014H304.803C305.692 143.014 306.412 143.182 306.964 143.52C307.516 143.826 307.93 144.271 308.206 144.853C308.482 145.436 308.62 146.111 308.62 146.877V155.34C308.62 156.628 308.268 157.579 307.562 158.192C306.857 158.806 305.937 159.112 304.803 159.112ZM301.997 157.594H304.389C305.278 157.594 305.922 157.364 306.32 156.904C306.688 156.475 306.872 155.877 306.872 155.11V147.015C306.872 146.187 306.673 145.574 306.274 145.175C305.845 144.777 305.247 144.577 304.481 144.577H301.997C301.2 144.577 300.586 144.792 300.157 145.221C299.697 145.651 299.467 146.249 299.467 147.015V155.11C299.467 155.938 299.697 156.552 300.157 156.95C300.617 157.38 301.23 157.594 301.997 157.594ZM318.923 159.112H315.842C315.075 159.112 314.4 158.974 313.818 158.698C313.205 158.453 312.729 158.054 312.392 157.502C312.055 156.92 311.886 156.199 311.886 155.34V146.877C311.886 146.049 312.055 145.344 312.392 144.761C312.729 144.209 313.205 143.78 313.818 143.474C314.4 143.167 315.075 143.014 315.842 143.014H318.923C319.843 143.014 320.579 143.182 321.131 143.52C321.683 143.826 322.097 144.271 322.373 144.853C322.649 145.436 322.787 146.111 322.787 146.877V155.34C322.787 156.628 322.434 157.579 321.729 158.192C321.024 158.806 320.089 159.112 318.923 159.112ZM316.164 157.594H318.555C319.445 157.594 320.073 157.364 320.441 156.904C320.84 156.475 321.039 155.877 321.039 155.11V147.015C321.039 146.187 320.825 145.574 320.395 145.175C319.997 144.777 319.399 144.577 318.601 144.577H316.118C315.351 144.577 314.738 144.792 314.278 145.221C313.848 145.651 313.634 146.249 313.634 147.015V155.11C313.634 155.938 313.848 156.552 314.278 156.95C314.738 157.38 315.366 157.594 316.164 157.594Z" fill="#A5A5A5"/>
<path d="M241.968 186.71C243.164 186.71 244.115 186.848 244.82 187.124C245.525 187.4 246.031 187.875 246.338 188.55C246.645 189.224 246.798 190.175 246.798 191.401C246.798 192.628 246.645 193.579 246.338 194.253C246.031 194.928 245.541 195.403 244.866 195.679C244.222 195.955 243.333 196.093 242.198 196.093C241.585 196.093 241.002 196.078 240.451 196.047C239.899 196.016 239.393 195.97 238.933 195.909C238.473 195.848 238.074 195.786 237.737 195.725C237.43 195.694 237.215 195.648 237.093 195.587L237.139 194.437C237.905 194.437 238.703 194.437 239.531 194.437C240.328 194.437 241.14 194.437 241.968 194.437C242.674 194.406 243.241 194.314 243.67 194.161C244.1 194.008 244.406 193.701 244.59 193.241C244.774 192.812 244.866 192.199 244.866 191.401C244.866 190.604 244.774 189.991 244.59 189.562C244.406 189.102 244.1 188.795 243.67 188.642C243.241 188.458 242.674 188.366 241.968 188.366C240.772 188.366 239.745 188.381 238.887 188.412C238.028 188.412 237.445 188.427 237.139 188.458L236.863 186.94C237.415 186.878 237.921 186.832 238.381 186.802C238.871 186.771 239.393 186.756 239.945 186.756C240.496 186.725 241.171 186.71 241.968 186.71ZM236.863 186.94H238.749V201.842H236.863V186.94ZM249.42 186.71H251.26V198.945C251.26 199.405 251.382 199.757 251.628 200.003C251.873 200.248 252.225 200.371 252.685 200.371H253.697L253.927 201.75C253.805 201.812 253.621 201.873 253.375 201.934C253.13 201.965 252.885 201.996 252.639 202.026C252.394 202.057 252.179 202.072 251.995 202.072C251.229 202.072 250.6 201.827 250.11 201.337C249.65 200.877 249.42 200.217 249.42 199.359V186.71ZM260.827 191.079C261.593 191.079 262.237 191.187 262.759 191.401C263.311 191.585 263.724 191.923 264 192.413C264.276 192.904 264.414 193.579 264.414 194.437V201.842H262.989L262.713 199.543L262.575 199.313V194.437C262.575 193.793 262.421 193.333 262.115 193.057C261.808 192.781 261.241 192.643 260.413 192.643C259.861 192.643 259.171 192.659 258.343 192.689C257.515 192.751 256.702 192.827 255.905 192.919L255.721 191.539C256.212 191.447 256.748 191.371 257.331 191.309C257.914 191.248 258.512 191.187 259.125 191.125C259.738 191.095 260.305 191.079 260.827 191.079ZM258.159 195.357H263.54V196.737L258.481 196.783C257.99 196.783 257.638 196.921 257.423 197.197C257.239 197.442 257.147 197.779 257.147 198.209V198.899C257.147 199.451 257.27 199.849 257.515 200.095C257.791 200.34 258.205 200.463 258.757 200.463C259.186 200.463 259.646 200.386 260.137 200.233C260.658 200.079 261.179 199.849 261.701 199.543C262.222 199.236 262.697 198.837 263.127 198.347V199.681C262.973 199.895 262.743 200.141 262.437 200.417C262.13 200.662 261.777 200.923 261.379 201.199C260.98 201.444 260.52 201.643 259.999 201.796C259.508 201.95 258.972 202.026 258.389 202.026C257.776 202.026 257.239 201.919 256.779 201.704C256.288 201.49 255.905 201.168 255.629 200.739C255.384 200.279 255.261 199.742 255.261 199.129V197.979C255.261 197.151 255.507 196.507 255.997 196.047C256.518 195.587 257.239 195.357 258.159 195.357ZM268.508 188.228H270.348V198.945C270.348 199.466 270.455 199.834 270.67 200.049C270.885 200.263 271.252 200.371 271.774 200.371H273.384L273.568 201.75C273.353 201.812 273.092 201.873 272.786 201.934C272.479 201.965 272.188 201.996 271.912 202.026C271.605 202.026 271.375 202.026 271.222 202.026C270.333 202.026 269.658 201.781 269.198 201.291C268.738 200.831 268.508 200.125 268.508 199.175V188.228ZM268.692 191.355H273.706V192.827H266.622V191.447L268.692 191.355ZM276.005 191.355H277.845V201.888H276.005V191.355ZM276.511 186.894H277.385C277.753 186.894 277.937 187.078 277.937 187.446V188.688C277.937 189.056 277.753 189.24 277.385 189.24H276.511C276.143 189.24 275.959 189.056 275.959 188.688V187.446C275.959 187.078 276.143 186.894 276.511 186.894ZM287.688 191.125C289.59 191.125 290.54 192.091 290.54 194.023V201.888H288.7V194.529C288.7 193.824 288.593 193.333 288.378 193.057C288.133 192.812 287.734 192.689 287.182 192.689C286.539 192.689 285.895 192.843 285.251 193.149C284.607 193.456 283.84 193.885 282.951 194.437L282.859 193.103C283.687 192.49 284.499 191.999 285.297 191.631C286.094 191.294 286.891 191.125 287.688 191.125ZM281.295 191.355H282.859L282.997 193.379L283.135 193.701V201.888H281.295V191.355ZM293.806 191.355H295.646V198.761C295.615 199.435 295.738 199.911 296.014 200.187C296.259 200.432 296.688 200.555 297.302 200.555C297.884 200.555 298.467 200.432 299.049 200.187C299.632 199.88 300.337 199.466 301.165 198.945L301.395 200.187C300.567 200.861 299.77 201.352 299.003 201.658C298.237 201.996 297.455 202.164 296.658 202.164C294.756 202.164 293.806 201.199 293.806 199.267V191.355ZM300.981 191.355H302.821V201.888H301.349L301.165 199.911L300.981 199.589V191.355ZM319.012 191.079C319.901 191.079 320.591 191.325 321.082 191.815C321.572 192.306 321.817 193.027 321.817 193.977V201.888H319.978V194.483C319.978 193.839 319.855 193.379 319.61 193.103C319.364 192.797 318.95 192.643 318.368 192.643C317.969 192.643 317.601 192.705 317.264 192.827C316.927 192.95 316.559 193.149 316.16 193.425C315.761 193.671 315.271 194.008 314.688 194.437L314.596 193.103C315.363 192.429 316.099 191.938 316.804 191.631C317.54 191.263 318.276 191.079 319.012 191.079ZM306.179 191.355H307.697L307.835 193.379L308.019 193.701V201.888H306.179V191.355ZM312.112 191.079C313.002 191.079 313.676 191.325 314.136 191.815C314.627 192.306 314.872 193.027 314.872 193.977V201.888H313.124V194.483C313.124 193.808 312.986 193.333 312.71 193.057C312.434 192.781 312.02 192.643 311.468 192.643C311.1 192.643 310.748 192.705 310.41 192.827C310.073 192.919 309.705 193.103 309.307 193.379C308.908 193.625 308.402 193.977 307.789 194.437L307.651 193.103C308.417 192.429 309.169 191.923 309.904 191.585C310.61 191.248 311.346 191.079 312.112 191.079Z" fill="#BFBBBB"/>
<path d="M300.74 80.1502L284.944 85.9951L279.099 101.79L273.254 85.9951L257.459 80.1502L273.254 74.3052L279.099 58.5101L284.944 74.3052L300.74 80.1502Z" fill="white"/>
<path d="M322.38 90.9737L310.533 95.3574L306.15 107.204L301.766 95.3574L289.92 90.9737L301.766 86.5899L306.15 74.7436L310.533 86.5899L322.38 90.9737Z" fill="white"/>
</g>
</g>
<defs>
<linearGradient id="paint0_linear_185_672" x1="180.797" y1="339.233" x2="180.797" y2="-15.6727" gradientUnits="userSpaceOnUse">
<stop/>
<stop offset="1" stop-color="#B1B1B1"/>
</linearGradient>
<linearGradient id="paint1_linear_185_672" x1="73.0747" y1="55.2531" x2="73.0747" y2="151.155" gradientUnits="userSpaceOnUse">
<stop stop-color="#FFCA3F"/>
<stop offset="0.097" stop-color="#CA7C22"/>
<stop offset="0.189" stop-color="#FDDB7A"/>
<stop offset="0.42" stop-color="#FFAD45"/>
<stop offset="0.554" stop-color="#A95F0D"/>
<stop offset="0.656" stop-color="#FFAD45"/>
<stop offset="0.79" stop-color="#FFFF9B"/>
<stop offset="1" stop-color="#FFCA3F"/>
</linearGradient>
<linearGradient id="paint2_linear_185_672" x1="73.5347" y1="32.0252" x2="73.5347" y2="152.075" gradientUnits="userSpaceOnUse">
<stop stop-color="#FFCA3F"/>
<stop offset="0.097" stop-color="#CA7C22"/>
<stop offset="0.189" stop-color="#FDDB7A"/>
<stop offset="0.42" stop-color="#FFAD45"/>
<stop offset="0.554" stop-color="#A95F0D"/>
<stop offset="0.656" stop-color="#FFAD45"/>
<stop offset="0.79" stop-color="#FFFF9B"/>
<stop offset="1" stop-color="#FFCA3F"/>
</linearGradient>
<clipPath id="clip0_185_672">
<rect width="362" height="225" fill="white"/>
</clipPath>
<clipPath id="clip1_185_672">
<rect width="362" height="225" fill="white"/>
</clipPath>
</defs>
</svg>
