<svg width="362" height="227" viewBox="0 0 362 227" fill="none" xmlns="http://www.w3.org/2000/svg">
<g clip-path="url(#clip0_273_731)">
<g clip-path="url(#clip1_273_731)">
<path d="M361.273 212.317C361.273 219.94 355.064 226.177 347.474 226.177H14.4619C6.82657 226.177 0.663086 219.94 0.663086 212.317V14.398C0.663086 6.72888 6.82657 0.538147 14.4619 0.538147H347.474C355.064 0.538147 361.273 6.72888 361.273 14.398V212.317Z" fill="url(#paint0_linear_273_731)"/>
<path d="M82.1683 97.5573C82.1683 101.346 79.1325 104.441 75.3148 104.441H41.0477C37.276 104.441 34.2402 101.346 34.2402 97.5573V73.1177C34.2402 69.3294 37.276 66.234 41.0477 66.234H75.3148C79.1325 66.234 82.1683 69.3294 82.1683 73.1177V97.5573Z" fill="url(#paint1_linear_273_731)"/>
<path style="mix-blend-mode:multiply" fill-rule="evenodd" clip-rule="evenodd" d="M77.3846 78.2921V90.7659H82.6282V91.6437H73.8429V104.441H72.969V91.6437H66.0236C65.2877 94.9239 62.5279 97.4187 59.0782 97.7421V104.441H58.2042V97.7883C54.5245 97.7421 51.4888 95.1549 50.6609 91.6437H44.4054V104.441H43.5315V91.6437H34.7002V90.7659H43.5315V78.2921H34.7002V77.4143H43.5315V66.234H44.4054V77.4143H50.8449C51.8568 74.2265 54.7545 71.9166 58.2042 71.8242V66.234H59.0782V71.9165C62.2979 72.1937 64.9197 74.4113 65.8396 77.4143H72.969V66.234H73.8429V77.4143H82.6282V78.2921H77.3846ZM50.4769 89.8882C50.4769 88.0402 51.1208 86.2384 52.3167 84.8062C51.1208 83.374 50.4769 81.6184 50.4769 79.7705C50.4769 79.2469 50.5229 78.7541 50.6149 78.2921H44.4054V90.7659H50.5689C50.5229 90.4887 50.4769 90.2115 50.4769 89.8882ZM65.3796 89.8882C65.3796 88.1326 64.6897 86.4232 63.4938 85.1296L63.2178 84.8062L63.4938 84.529C64.6897 83.1892 65.3796 81.526 65.3796 79.7705C65.3796 75.8897 62.2059 72.7019 58.3422 72.7019C54.4786 72.7019 51.3508 75.8897 51.3508 79.7705C51.3508 81.526 51.9948 83.1892 53.2367 84.529L53.4666 84.8062L53.2367 85.1296C51.9948 86.4232 51.3508 88.1326 51.3508 89.8882C51.3508 93.7689 54.4786 96.9567 58.3422 96.9567C62.2059 96.9567 65.3796 93.7689 65.3796 89.8882ZM76.5107 78.2921H66.1156C66.2076 78.7541 66.2536 79.2469 66.2536 79.7705C66.2536 81.6184 65.6096 83.374 64.4137 84.8062C65.6096 86.2384 66.2536 88.0402 66.2536 89.8882C66.2536 90.2115 66.2076 90.4887 66.1616 90.7659H76.5107V78.2921Z" fill="url(#paint2_linear_273_731)"/>
<path d="M44.3592 160.758H41.2774C40.5108 160.758 39.8209 160.62 39.2076 160.342C38.625 160.096 38.165 159.696 37.8277 159.141C37.4904 158.556 37.3218 157.832 37.3218 156.97V148.469C37.3218 147.638 37.4904 146.929 37.8277 146.344C38.165 145.79 38.625 145.358 39.2076 145.05C39.8209 144.742 40.5108 144.588 41.2774 144.588H44.3592C45.2485 144.588 45.9691 144.758 46.521 145.097C47.1036 145.405 47.5176 145.851 47.7629 146.436C48.0389 147.022 48.1769 147.699 48.1769 148.469V156.97C48.1769 158.263 47.8242 159.218 47.119 159.834C46.4444 160.45 45.5244 160.758 44.3592 160.758ZM41.5994 159.234H43.9452C44.8345 159.234 45.4784 159.003 45.8771 158.541C46.2757 158.109 46.475 157.509 46.475 156.739V148.608C46.475 147.776 46.2604 147.16 45.8311 146.76C45.4324 146.359 44.8345 146.159 44.0372 146.159H41.5534C40.7562 146.159 40.1429 146.375 39.7136 146.806C39.2536 147.237 39.0236 147.838 39.0236 148.608V156.739C39.0236 157.57 39.2536 158.186 39.7136 158.587C40.1735 159.018 40.8022 159.234 41.5994 159.234ZM58.526 160.758H55.4443C54.6777 160.758 53.9877 160.62 53.3744 160.342C52.7918 160.096 52.3165 159.696 51.9486 159.141C51.6419 158.556 51.4886 157.832 51.4886 156.97V148.469C51.4886 147.638 51.6419 146.929 51.9486 146.344C52.3165 145.79 52.7918 145.358 53.3744 145.05C53.9877 144.742 54.6777 144.588 55.4443 144.588H58.526C59.4153 144.588 60.1359 144.758 60.6878 145.097C61.2704 145.405 61.6844 145.851 61.9297 146.436C62.2057 147.022 62.3437 147.699 62.3437 148.469V156.97C62.3437 158.263 61.9911 159.218 61.2858 159.834C60.5805 160.45 59.6606 160.758 58.526 160.758ZM55.7662 159.234H58.112C59.0013 159.234 59.6453 159.003 60.0439 158.541C60.4119 158.109 60.5958 157.509 60.5958 156.739V148.608C60.5958 147.776 60.3965 147.16 59.9979 146.76C59.5993 146.359 59.0013 146.159 58.204 146.159H55.7202C54.923 146.159 54.3097 146.375 53.8804 146.806C53.4204 147.237 53.1905 147.838 53.1905 148.608V156.739C53.1905 157.57 53.4204 158.186 53.8804 158.587C54.3404 159.018 54.969 159.234 55.7662 159.234ZM72.6928 160.758H69.5651C68.8292 160.758 68.1545 160.62 67.5413 160.342C66.9586 160.096 66.4833 159.696 66.1154 159.141C65.7781 158.556 65.6094 157.832 65.6094 156.97V148.469C65.6094 147.638 65.7781 146.929 66.1154 146.344C66.4833 145.79 66.9586 145.358 67.5413 145.05C68.1545 144.742 68.8292 144.588 69.5651 144.588H72.6928C73.5821 144.588 74.3027 144.758 74.8546 145.097C75.4066 145.405 75.8206 145.851 76.0965 146.436C76.3725 147.022 76.5105 147.699 76.5105 148.469V156.97C76.5105 158.263 76.1579 159.218 75.4526 159.834C74.7473 160.45 73.8274 160.758 72.6928 160.758ZM69.8871 159.234H72.2789C73.1681 159.234 73.8121 159.003 74.2107 158.541C74.5787 158.109 74.7627 157.509 74.7627 156.739V148.608C74.7627 147.776 74.5633 147.16 74.1647 146.76C73.7354 146.359 73.1375 146.159 72.3709 146.159H69.8871C69.0898 146.159 68.4765 146.375 68.0472 146.806C67.5873 147.237 67.3573 147.838 67.3573 148.608V156.739C67.3573 157.57 67.5873 158.186 68.0472 158.587C68.5072 159.018 69.1205 159.234 69.8871 159.234ZM86.8137 160.758H83.7319C82.9653 160.758 82.2907 160.62 81.7081 160.342C81.0948 160.096 80.6195 159.696 80.2822 159.141C79.9449 158.556 79.7762 157.832 79.7762 156.97V148.469C79.7762 147.638 79.9449 146.929 80.2822 146.344C80.6195 145.79 81.0948 145.358 81.7081 145.05C82.2907 144.742 82.9653 144.588 83.7319 144.588H86.8137C87.7336 144.588 88.4695 144.758 89.0215 145.097C89.5734 145.405 89.9874 145.851 90.2634 146.436C90.5393 147.022 90.6773 147.699 90.6773 148.469V156.97C90.6773 158.263 90.3247 159.218 89.6194 159.834C88.9141 160.45 87.9789 160.758 86.8137 160.758ZM84.0539 159.234H86.4457C87.3349 159.234 87.9636 159.003 88.3315 158.541C88.7302 158.109 88.9295 157.509 88.9295 156.739V148.608C88.9295 147.776 88.7148 147.16 88.2855 146.76C87.8869 146.359 87.2889 146.159 86.4917 146.159H84.0079C83.2413 146.159 82.628 146.375 82.168 146.806C81.7387 147.237 81.5241 147.838 81.5241 148.608V156.739C81.5241 157.57 81.7387 158.186 82.168 158.587C82.628 159.018 83.2566 159.234 84.0539 159.234Z" fill="white"/>
<path d="M123.013 160.296H119.931C119.164 160.296 118.474 160.158 117.861 159.88C117.278 159.634 116.818 159.234 116.481 158.679C116.144 158.094 115.975 157.37 115.975 156.508V148.007C115.975 147.176 116.144 146.467 116.481 145.882C116.818 145.328 117.278 144.896 117.861 144.588C118.474 144.28 119.164 144.126 119.931 144.126H123.013C123.902 144.126 124.622 144.296 125.174 144.635C125.757 144.943 126.171 145.389 126.416 145.974C126.692 146.56 126.83 147.237 126.83 148.007V156.508C126.83 157.801 126.478 158.756 125.772 159.372C125.098 159.988 124.178 160.296 123.013 160.296ZM120.253 158.772H122.599C123.488 158.772 124.132 158.541 124.53 158.079C124.929 157.647 125.128 157.047 125.128 156.277V148.146C125.128 147.314 124.914 146.698 124.484 146.298C124.086 145.897 123.488 145.697 122.691 145.697H120.207C119.409 145.697 118.796 145.913 118.367 146.344C117.907 146.775 117.677 147.376 117.677 148.146V156.277C117.677 157.108 117.907 157.724 118.367 158.125C118.827 158.556 119.455 158.772 120.253 158.772ZM137.179 160.296H134.098C133.331 160.296 132.641 160.158 132.028 159.88C131.445 159.634 130.97 159.234 130.602 158.679C130.295 158.094 130.142 157.37 130.142 156.508V148.007C130.142 147.176 130.295 146.467 130.602 145.882C130.97 145.328 131.445 144.896 132.028 144.588C132.641 144.28 133.331 144.126 134.098 144.126H137.179C138.069 144.126 138.789 144.296 139.341 144.635C139.924 144.943 140.338 145.389 140.583 145.974C140.859 146.56 140.997 147.237 140.997 148.007V156.508C140.997 157.801 140.644 158.756 139.939 159.372C139.234 159.988 138.314 160.296 137.179 160.296ZM134.42 158.772H136.765C137.655 158.772 138.299 158.541 138.697 158.079C139.065 157.647 139.249 157.047 139.249 156.277V148.146C139.249 147.314 139.05 146.698 138.651 146.298C138.253 145.897 137.655 145.697 136.857 145.697H134.374C133.576 145.697 132.963 145.913 132.534 146.344C132.074 146.775 131.844 147.376 131.844 148.146V156.277C131.844 157.108 132.074 157.724 132.534 158.125C132.994 158.556 133.622 158.772 134.42 158.772ZM151.346 160.296H148.218C147.482 160.296 146.808 160.158 146.195 159.88C145.612 159.634 145.137 159.234 144.769 158.679C144.431 158.094 144.263 157.37 144.263 156.508V148.007C144.263 147.176 144.431 146.467 144.769 145.882C145.137 145.328 145.612 144.896 146.195 144.588C146.808 144.28 147.482 144.126 148.218 144.126H151.346C152.235 144.126 152.956 144.296 153.508 144.635C154.06 144.943 154.474 145.389 154.75 145.974C155.026 146.56 155.164 147.237 155.164 148.007V156.508C155.164 157.801 154.811 158.756 154.106 159.372C153.401 159.988 152.481 160.296 151.346 160.296ZM148.54 158.772H150.932C151.821 158.772 152.465 158.541 152.864 158.079C153.232 157.647 153.416 157.047 153.416 156.277V148.146C153.416 147.314 153.217 146.698 152.818 146.298C152.389 145.897 151.791 145.697 151.024 145.697H148.54C147.743 145.697 147.13 145.913 146.701 146.344C146.241 146.775 146.011 147.376 146.011 148.146V156.277C146.011 157.108 146.241 157.724 146.701 158.125C147.16 158.556 147.774 158.772 148.54 158.772ZM165.467 160.296H162.385C161.619 160.296 160.944 160.158 160.361 159.88C159.748 159.634 159.273 159.234 158.936 158.679C158.598 158.094 158.43 157.37 158.43 156.508V148.007C158.43 147.176 158.598 146.467 158.936 145.882C159.273 145.328 159.748 144.896 160.361 144.588C160.944 144.28 161.619 144.126 162.385 144.126H165.467C166.387 144.126 167.123 144.296 167.675 144.635C168.227 144.943 168.641 145.389 168.917 145.974C169.193 146.56 169.331 147.237 169.331 148.007V156.508C169.331 157.801 168.978 158.756 168.273 159.372C167.567 159.988 166.632 160.296 165.467 160.296ZM162.707 158.772H165.099C165.988 158.772 166.617 158.541 166.985 158.079C167.383 157.647 167.583 157.047 167.583 156.277V148.146C167.583 147.314 167.368 146.698 166.939 146.298C166.54 145.897 165.942 145.697 165.145 145.697H162.661C161.895 145.697 161.281 145.913 160.821 146.344C160.392 146.775 160.177 147.376 160.177 148.146V156.277C160.177 157.108 160.392 157.724 160.821 158.125C161.281 158.556 161.91 158.772 162.707 158.772Z" fill="white"/>
<path d="M200.746 160.296H197.664C196.898 160.296 196.208 160.158 195.594 159.88C195.012 159.634 194.552 159.234 194.214 158.679C193.877 158.094 193.708 157.37 193.708 156.508V148.007C193.708 147.176 193.877 146.467 194.214 145.882C194.552 145.328 195.012 144.896 195.594 144.588C196.208 144.28 196.898 144.126 197.664 144.126H200.746C201.635 144.126 202.356 144.296 202.908 144.635C203.49 144.943 203.904 145.389 204.15 145.974C204.426 146.56 204.564 147.237 204.564 148.007V156.508C204.564 157.801 204.211 158.756 203.506 159.372C202.831 159.988 201.911 160.296 200.746 160.296ZM197.986 158.772H200.332C201.221 158.772 201.865 158.541 202.264 158.079C202.662 157.647 202.862 157.047 202.862 156.277V148.146C202.862 147.314 202.647 146.698 202.218 146.298C201.819 145.897 201.221 145.697 200.424 145.697H197.94C197.143 145.697 196.53 145.913 196.1 146.344C195.64 146.775 195.41 147.376 195.41 148.146V156.277C195.41 157.108 195.64 157.724 196.1 158.125C196.56 158.556 197.189 158.772 197.986 158.772ZM214.913 160.296H211.831C211.064 160.296 210.374 160.158 209.761 159.88C209.179 159.634 208.703 159.234 208.335 158.679C208.029 158.094 207.875 157.37 207.875 156.508V148.007C207.875 147.176 208.029 146.467 208.335 145.882C208.703 145.328 209.179 144.896 209.761 144.588C210.374 144.28 211.064 144.126 211.831 144.126H214.913C215.802 144.126 216.523 144.296 217.075 144.635C217.657 144.943 218.071 145.389 218.316 145.974C218.592 146.56 218.73 147.237 218.73 148.007V156.508C218.73 157.801 218.378 158.756 217.673 159.372C216.967 159.988 216.047 160.296 214.913 160.296ZM212.153 158.772H214.499C215.388 158.772 216.032 158.541 216.431 158.079C216.799 157.647 216.983 157.047 216.983 156.277V148.146C216.983 147.314 216.783 146.698 216.385 146.298C215.986 145.897 215.388 145.697 214.591 145.697H212.107C211.31 145.697 210.696 145.913 210.267 146.344C209.807 146.775 209.577 147.376 209.577 148.146V156.277C209.577 157.108 209.807 157.724 210.267 158.125C210.727 158.556 211.356 158.772 212.153 158.772ZM229.08 160.296H225.952C225.216 160.296 224.541 160.158 223.928 159.88C223.345 159.634 222.87 159.234 222.502 158.679C222.165 158.094 221.996 157.37 221.996 156.508V148.007C221.996 147.176 222.165 146.467 222.502 145.882C222.87 145.328 223.345 144.896 223.928 144.588C224.541 144.28 225.216 144.126 225.952 144.126H229.08C229.969 144.126 230.689 144.296 231.241 144.635C231.793 144.943 232.207 145.389 232.483 145.974C232.759 146.56 232.897 147.237 232.897 148.007V156.508C232.897 157.801 232.545 158.756 231.839 159.372C231.134 159.988 230.214 160.296 229.08 160.296ZM226.274 158.772H228.666C229.555 158.772 230.199 158.541 230.597 158.079C230.965 157.647 231.149 157.047 231.149 156.277V148.146C231.149 147.314 230.95 146.698 230.551 146.298C230.122 145.897 229.524 145.697 228.758 145.697H226.274C225.477 145.697 224.863 145.913 224.434 146.344C223.974 146.775 223.744 147.376 223.744 148.146V156.277C223.744 157.108 223.974 157.724 224.434 158.125C224.894 158.556 225.507 158.772 226.274 158.772ZM243.2 160.296H240.119C239.352 160.296 238.677 160.158 238.095 159.88C237.482 159.634 237.006 159.234 236.669 158.679C236.332 158.094 236.163 157.37 236.163 156.508V148.007C236.163 147.176 236.332 146.467 236.669 145.882C237.006 145.328 237.482 144.896 238.095 144.588C238.677 144.28 239.352 144.126 240.119 144.126H243.2C244.12 144.126 244.856 144.296 245.408 144.635C245.96 144.943 246.374 145.389 246.65 145.974C246.926 146.56 247.064 147.237 247.064 148.007V156.508C247.064 157.801 246.711 158.756 246.006 159.372C245.301 159.988 244.366 160.296 243.2 160.296ZM240.441 158.772H242.832C243.722 158.772 244.35 158.541 244.718 158.079C245.117 157.647 245.316 157.047 245.316 156.277V148.146C245.316 147.314 245.102 146.698 244.672 146.298C244.274 145.897 243.676 145.697 242.878 145.697H240.395C239.628 145.697 239.015 145.913 238.555 146.344C238.125 146.775 237.911 147.376 237.911 148.146V156.277C237.911 157.108 238.125 157.724 238.555 158.125C239.015 158.556 239.643 158.772 240.441 158.772Z" fill="white"/>
<path d="M276.64 160.296H273.558C272.792 160.296 272.102 160.158 271.488 159.88C270.906 159.634 270.446 159.234 270.109 158.679C269.771 158.094 269.603 157.37 269.603 156.508V148.007C269.603 147.176 269.771 146.467 270.109 145.882C270.446 145.328 270.906 144.896 271.488 144.588C272.102 144.28 272.792 144.126 273.558 144.126H276.64C277.529 144.126 278.25 144.296 278.802 144.635C279.384 144.943 279.798 145.389 280.044 145.974C280.32 146.56 280.458 147.237 280.458 148.007V156.508C280.458 157.801 280.105 158.756 279.4 159.372C278.725 159.988 277.805 160.296 276.64 160.296ZM273.88 158.772H276.226C277.115 158.772 277.759 158.541 278.158 158.079C278.556 157.647 278.756 157.047 278.756 156.277V148.146C278.756 147.314 278.541 146.698 278.112 146.298C277.713 145.897 277.115 145.697 276.318 145.697H273.834C273.037 145.697 272.424 145.913 271.994 146.344C271.534 146.775 271.304 147.376 271.304 148.146V156.277C271.304 157.108 271.534 157.724 271.994 158.125C272.454 158.556 273.083 158.772 273.88 158.772ZM290.807 160.296H287.725C286.958 160.296 286.268 160.158 285.655 159.88C285.073 159.634 284.597 159.234 284.229 158.679C283.923 158.094 283.769 157.37 283.769 156.508V148.007C283.769 147.176 283.923 146.467 284.229 145.882C284.597 145.328 285.073 144.896 285.655 144.588C286.268 144.28 286.958 144.126 287.725 144.126H290.807C291.696 144.126 292.417 144.296 292.969 144.635C293.551 144.943 293.965 145.389 294.21 145.974C294.486 146.56 294.624 147.237 294.624 148.007V156.508C294.624 157.801 294.272 158.756 293.567 159.372C292.861 159.988 291.941 160.296 290.807 160.296ZM288.047 158.772H290.393C291.282 158.772 291.926 158.541 292.325 158.079C292.693 157.647 292.877 157.047 292.877 156.277V148.146C292.877 147.314 292.677 146.698 292.279 146.298C291.88 145.897 291.282 145.697 290.485 145.697H288.001C287.204 145.697 286.59 145.913 286.161 146.344C285.701 146.775 285.471 147.376 285.471 148.146V156.277C285.471 157.108 285.701 157.724 286.161 158.125C286.621 158.556 287.25 158.772 288.047 158.772ZM304.974 160.296H301.846C301.11 160.296 300.435 160.158 299.822 159.88C299.239 159.634 298.764 159.234 298.396 158.679C298.059 158.094 297.89 157.37 297.89 156.508V148.007C297.89 147.176 298.059 146.467 298.396 145.882C298.764 145.328 299.239 144.896 299.822 144.588C300.435 144.28 301.11 144.126 301.846 144.126H304.974C305.863 144.126 306.583 144.296 307.135 144.635C307.687 144.943 308.101 145.389 308.377 145.974C308.653 146.56 308.791 147.237 308.791 148.007V156.508C308.791 157.801 308.439 158.756 307.733 159.372C307.028 159.988 306.108 160.296 304.974 160.296ZM302.168 158.772H304.56C305.449 158.772 306.093 158.541 306.491 158.079C306.859 157.647 307.043 157.047 307.043 156.277V148.146C307.043 147.314 306.844 146.698 306.445 146.298C306.016 145.897 305.418 145.697 304.652 145.697H302.168C301.371 145.697 300.757 145.913 300.328 146.344C299.868 146.775 299.638 147.376 299.638 148.146V156.277C299.638 157.108 299.868 157.724 300.328 158.125C300.788 158.556 301.401 158.772 302.168 158.772ZM319.094 160.296H316.013C315.246 160.296 314.571 160.158 313.989 159.88C313.376 159.634 312.9 159.234 312.563 158.679C312.226 158.094 312.057 157.37 312.057 156.508V148.007C312.057 147.176 312.226 146.467 312.563 145.882C312.9 145.328 313.376 144.896 313.989 144.588C314.571 144.28 315.246 144.126 316.013 144.126H319.094C320.014 144.126 320.75 144.296 321.302 144.635C321.854 144.943 322.268 145.389 322.544 145.974C322.82 146.56 322.958 147.237 322.958 148.007V156.508C322.958 157.801 322.605 158.756 321.9 159.372C321.195 159.988 320.26 160.296 319.094 160.296ZM316.335 158.772H318.726C319.616 158.772 320.244 158.541 320.612 158.079C321.011 157.647 321.21 157.047 321.21 156.277V148.146C321.21 147.314 320.996 146.698 320.566 146.298C320.168 145.897 319.57 145.697 318.772 145.697H316.289C315.522 145.697 314.909 145.913 314.449 146.344C314.02 146.775 313.805 147.376 313.805 148.146V156.277C313.805 157.108 314.02 157.724 314.449 158.125C314.909 158.556 315.537 158.772 316.335 158.772Z" fill="white"/>
<path d="M250.531 189.276C250.455 188.603 250.143 188.082 249.594 187.713C249.045 187.339 248.353 187.152 247.52 187.152C246.923 187.152 246.407 187.247 245.972 187.436C245.536 187.621 245.197 187.876 244.956 188.203C244.719 188.525 244.601 188.892 244.601 189.304C244.601 189.65 244.681 189.948 244.842 190.199C245.008 190.45 245.223 190.661 245.489 190.831C245.759 190.997 246.047 191.136 246.355 191.25C246.663 191.359 246.959 191.449 247.243 191.52L248.663 191.889C249.127 192.003 249.603 192.157 250.091 192.351C250.579 192.545 251.031 192.801 251.447 193.118C251.864 193.435 252.2 193.828 252.456 194.297C252.716 194.766 252.847 195.327 252.847 195.98C252.847 196.804 252.634 197.536 252.207 198.175C251.786 198.814 251.173 199.318 250.368 199.688C249.568 200.057 248.599 200.241 247.463 200.241C246.374 200.241 245.432 200.069 244.636 199.723C243.841 199.377 243.218 198.887 242.768 198.253C242.319 197.614 242.07 196.856 242.023 195.98H244.224C244.267 196.506 244.438 196.944 244.736 197.294C245.039 197.64 245.425 197.898 245.893 198.068C246.367 198.234 246.885 198.317 247.449 198.317C248.069 198.317 248.621 198.22 249.104 198.026C249.591 197.827 249.975 197.552 250.254 197.202C250.534 196.847 250.673 196.432 250.673 195.959C250.673 195.528 250.55 195.175 250.304 194.901C250.063 194.626 249.733 194.399 249.317 194.219C248.905 194.039 248.438 193.88 247.918 193.743L246.199 193.274C245.034 192.957 244.111 192.491 243.429 191.875C242.752 191.259 242.413 190.445 242.413 189.432C242.413 188.594 242.641 187.862 243.095 187.237C243.55 186.612 244.165 186.127 244.942 185.781C245.718 185.431 246.594 185.256 247.57 185.256C248.554 185.256 249.423 185.429 250.176 185.774C250.934 186.12 251.53 186.596 251.966 187.202C252.402 187.803 252.629 188.494 252.648 189.276H250.531ZM259.701 189.091V190.795H253.742V189.091H259.701ZM255.34 186.477H257.464V196.797C257.464 197.209 257.525 197.519 257.648 197.727C257.772 197.931 257.93 198.071 258.124 198.146C258.323 198.217 258.539 198.253 258.771 198.253C258.941 198.253 259.09 198.241 259.218 198.217C259.346 198.194 259.445 198.175 259.516 198.161L259.9 199.915C259.777 199.962 259.602 200.009 259.374 200.057C259.147 200.109 258.863 200.137 258.522 200.142C257.963 200.152 257.442 200.052 256.96 199.844C256.477 199.635 256.086 199.313 255.788 198.878C255.489 198.442 255.34 197.895 255.34 197.237V186.477ZM264.535 200.241C263.843 200.241 263.218 200.114 262.66 199.858C262.101 199.598 261.658 199.221 261.332 198.729C261.01 198.236 260.849 197.633 260.849 196.918C260.849 196.302 260.967 195.795 261.204 195.398C261.441 195 261.76 194.685 262.163 194.453C262.565 194.221 263.015 194.046 263.512 193.928C264.009 193.809 264.516 193.719 265.032 193.658C265.685 193.582 266.216 193.52 266.623 193.473C267.03 193.421 267.326 193.338 267.511 193.224C267.695 193.111 267.788 192.926 267.788 192.67V192.621C267.788 192 267.612 191.52 267.262 191.179C266.916 190.838 266.4 190.668 265.714 190.668C264.999 190.668 264.435 190.826 264.023 191.143C263.616 191.456 263.334 191.804 263.178 192.188L261.183 191.733C261.419 191.07 261.765 190.535 262.219 190.128C262.679 189.716 263.207 189.418 263.803 189.233C264.4 189.044 265.027 188.949 265.685 188.949C266.121 188.949 266.583 189.001 267.07 189.105C267.563 189.205 268.022 189.389 268.448 189.659C268.879 189.929 269.232 190.315 269.506 190.817C269.781 191.314 269.918 191.96 269.918 192.756V200H267.844V198.509H267.759C267.622 198.783 267.416 199.053 267.141 199.318C266.867 199.583 266.514 199.804 266.083 199.979C265.652 200.154 265.136 200.241 264.535 200.241ZM264.996 198.537C265.584 198.537 266.085 198.421 266.502 198.189C266.924 197.957 267.243 197.654 267.461 197.28C267.683 196.901 267.795 196.496 267.795 196.065V194.659C267.719 194.735 267.572 194.806 267.354 194.872C267.141 194.934 266.897 194.988 266.623 195.036C266.348 195.078 266.081 195.118 265.82 195.156C265.56 195.189 265.342 195.218 265.167 195.241C264.755 195.294 264.379 195.381 264.038 195.504C263.701 195.627 263.432 195.805 263.228 196.037C263.029 196.264 262.93 196.567 262.93 196.946C262.93 197.472 263.124 197.869 263.512 198.139C263.9 198.404 264.395 198.537 264.996 198.537ZM274.18 193.523V200H272.057V189.091H274.095V190.866H274.23C274.481 190.289 274.874 189.825 275.409 189.474C275.949 189.124 276.628 188.949 277.447 188.949C278.191 188.949 278.842 189.105 279.401 189.418C279.959 189.725 280.392 190.185 280.7 190.795C281.008 191.406 281.162 192.161 281.162 193.061V200H279.038V193.317C279.038 192.526 278.832 191.908 278.42 191.463C278.008 191.013 277.443 190.788 276.723 190.788C276.231 190.788 275.793 190.895 275.409 191.108C275.03 191.321 274.73 191.634 274.507 192.045C274.289 192.453 274.18 192.945 274.18 193.523ZM287.404 200.213C286.523 200.213 285.737 199.988 285.046 199.538C284.359 199.084 283.819 198.437 283.426 197.599C283.038 196.757 282.844 195.746 282.844 194.567C282.844 193.388 283.041 192.379 283.434 191.541C283.831 190.703 284.376 190.062 285.067 189.616C285.758 189.171 286.542 188.949 287.418 188.949C288.095 188.949 288.64 189.062 289.051 189.29C289.468 189.512 289.79 189.773 290.017 190.071C290.249 190.369 290.429 190.632 290.557 190.859H290.685V185.455H292.809V200H290.735V198.303H290.557C290.429 198.535 290.245 198.8 290.003 199.098C289.766 199.396 289.44 199.657 289.023 199.879C288.606 200.102 288.067 200.213 287.404 200.213ZM287.872 198.402C288.483 198.402 288.999 198.241 289.421 197.919C289.847 197.592 290.169 197.14 290.387 196.562C290.609 195.985 290.72 195.312 290.72 194.545C290.72 193.788 290.612 193.125 290.394 192.557C290.176 191.989 289.856 191.546 289.435 191.229C289.014 190.911 288.493 190.753 287.872 190.753C287.233 190.753 286.701 190.919 286.274 191.25C285.848 191.581 285.526 192.034 285.309 192.607C285.095 193.179 284.989 193.826 284.989 194.545C284.989 195.275 285.098 195.93 285.316 196.513C285.533 197.095 285.855 197.557 286.282 197.898C286.712 198.234 287.243 198.402 287.872 198.402ZM298.324 200.241C297.633 200.241 297.008 200.114 296.449 199.858C295.89 199.598 295.448 199.221 295.121 198.729C294.799 198.236 294.638 197.633 294.638 196.918C294.638 196.302 294.756 195.795 294.993 195.398C295.23 195 295.55 194.685 295.952 194.453C296.354 194.221 296.804 194.046 297.301 193.928C297.799 193.809 298.305 193.719 298.821 193.658C299.475 193.582 300.005 193.52 300.412 193.473C300.819 193.421 301.115 193.338 301.3 193.224C301.485 193.111 301.577 192.926 301.577 192.67V192.621C301.577 192 301.402 191.52 301.051 191.179C300.706 190.838 300.19 190.668 299.503 190.668C298.788 190.668 298.225 190.826 297.813 191.143C297.406 191.456 297.124 191.804 296.968 192.188L294.972 191.733C295.209 191.07 295.554 190.535 296.009 190.128C296.468 189.716 296.996 189.418 297.593 189.233C298.189 189.044 298.817 188.949 299.475 188.949C299.91 188.949 300.372 189.001 300.86 189.105C301.352 189.205 301.811 189.389 302.237 189.659C302.668 189.929 303.021 190.315 303.296 190.817C303.57 191.314 303.708 191.96 303.708 192.756V200H301.634V198.509H301.549C301.411 198.783 301.205 199.053 300.931 199.318C300.656 199.583 300.303 199.804 299.872 199.979C299.442 200.154 298.925 200.241 298.324 200.241ZM298.786 198.537C299.373 198.537 299.875 198.421 300.291 198.189C300.713 197.957 301.032 197.654 301.25 197.28C301.473 196.901 301.584 196.496 301.584 196.065V194.659C301.508 194.735 301.362 194.806 301.144 194.872C300.931 194.934 300.687 194.988 300.412 195.036C300.138 195.078 299.87 195.118 299.61 195.156C299.349 195.189 299.131 195.218 298.956 195.241C298.544 195.294 298.168 195.381 297.827 195.504C297.491 195.627 297.221 195.805 297.017 196.037C296.818 196.264 296.719 196.567 296.719 196.946C296.719 197.472 296.913 197.869 297.301 198.139C297.69 198.404 298.184 198.537 298.786 198.537ZM305.846 200V189.091H307.899V190.824H308.012C308.211 190.237 308.562 189.775 309.063 189.439C309.57 189.098 310.143 188.928 310.782 188.928C310.915 188.928 311.071 188.932 311.251 188.942C311.436 188.951 311.58 188.963 311.684 188.977V191.009C311.599 190.985 311.447 190.959 311.23 190.93C311.012 190.897 310.794 190.881 310.576 190.881C310.074 190.881 309.627 190.987 309.234 191.2C308.846 191.409 308.538 191.7 308.311 192.074C308.083 192.443 307.97 192.865 307.97 193.338V200H305.846ZM316.525 200.213C315.644 200.213 314.858 199.988 314.167 199.538C313.481 199.084 312.941 198.437 312.548 197.599C312.16 196.757 311.965 195.746 311.965 194.567C311.965 193.388 312.162 192.379 312.555 191.541C312.953 190.703 313.497 190.062 314.188 189.616C314.88 189.171 315.663 188.949 316.539 188.949C317.216 188.949 317.761 189.062 318.173 189.29C318.59 189.512 318.911 189.773 319.139 190.071C319.371 190.369 319.551 190.632 319.679 190.859H319.806V185.455H321.93V200H319.856V198.303H319.679C319.551 198.535 319.366 198.8 319.125 199.098C318.888 199.396 318.561 199.657 318.144 199.879C317.728 200.102 317.188 200.213 316.525 200.213ZM316.994 198.402C317.605 198.402 318.121 198.241 318.542 197.919C318.968 197.592 319.29 197.14 319.508 196.562C319.731 195.985 319.842 195.312 319.842 194.545C319.842 193.788 319.733 193.125 319.515 192.557C319.297 191.989 318.978 191.546 318.556 191.229C318.135 190.911 317.614 190.753 316.994 190.753C316.355 190.753 315.822 190.919 315.396 191.25C314.97 191.581 314.648 192.034 314.43 192.607C314.217 193.179 314.11 193.826 314.11 194.545C314.11 195.275 314.219 195.93 314.437 196.513C314.655 197.095 314.977 197.557 315.403 197.898C315.834 198.234 316.364 198.402 316.994 198.402Z" fill="white"/>
</g>
</g>
<defs>
<linearGradient id="paint0_linear_273_731" x1="180.968" y1="0.538147" x2="180.968" y2="226.177" gradientUnits="userSpaceOnUse">
<stop stop-color="#A95F0D"/>
<stop offset="1" stop-color="#3E2000"/>
</linearGradient>
<linearGradient id="paint1_linear_273_731" x1="73.245" y1="55.9777" x2="73.245" y2="152.304" gradientUnits="userSpaceOnUse">
<stop stop-color="#FFCA3F"/>
<stop offset="0.097" stop-color="#CA7C22"/>
<stop offset="0.189" stop-color="#FDDB7A"/>
<stop offset="0.42" stop-color="#FFAD45"/>
<stop offset="0.554" stop-color="#A95F0D"/>
<stop offset="0.656" stop-color="#FFAD45"/>
<stop offset="0.79" stop-color="#FFFF9B"/>
<stop offset="1" stop-color="#FFCA3F"/>
</linearGradient>
<linearGradient id="paint2_linear_273_731" x1="73.705" y1="32.647" x2="73.705" y2="153.228" gradientUnits="userSpaceOnUse">
<stop stop-color="#FFCA3F"/>
<stop offset="0.097" stop-color="#CA7C22"/>
<stop offset="0.189" stop-color="#FDDB7A"/>
<stop offset="0.42" stop-color="#FFAD45"/>
<stop offset="0.554" stop-color="#A95F0D"/>
<stop offset="0.656" stop-color="#FFAD45"/>
<stop offset="0.79" stop-color="#FFFF9B"/>
<stop offset="1" stop-color="#FFCA3F"/>
</linearGradient>
<clipPath id="clip0_273_731">
<rect width="362" height="226" fill="white" transform="translate(0 0.5)"/>
</clipPath>
<clipPath id="clip1_273_731">
<rect width="362" height="226" fill="white" transform="translate(0 0.5)"/>
</clipPath>
</defs>
</svg>
