<svg width="26" height="22" viewBox="0 0 26 22" fill="none" xmlns="http://www.w3.org/2000/svg">
<g clip-path="url(#clip0_474_2125)">
<path d="M2.86897 1C1.28655 1 0 2.28655 0 3.86897V5.30345H25.8207V3.86897C25.8207 2.28655 24.5341 1 22.9517 1H2.86897ZM25.8207 9.6069H0V18.2138C0 19.7962 1.28655 21.0828 2.86897 21.0828H17.7241V17.8966C17.7241 15.1351 19.9627 12.8966 22.7241 12.8966H25.8207V9.6069ZM5.02069 15.3448H7.88966C8.28414 15.3448 8.6069 15.6676 8.6069 16.0621C8.6069 16.4566 8.28414 16.7793 7.88966 16.7793H5.02069C4.62621 16.7793 4.30345 16.4566 4.30345 16.0621C4.30345 15.6676 4.62621 15.3448 5.02069 15.3448ZM10.0414 16.0621C10.0414 15.6676 10.3641 15.3448 10.7586 15.3448H15.4966C15.891 15.3448 16.2138 15.6676 16.2138 16.0621C16.2138 16.4566 15.891 16.7793 15.4966 16.7793H10.7586C10.3641 16.7793 10.0414 16.4566 10.0414 16.0621Z" fill="white"/>
<path d="M22.3571 20.3571V18.6429H20.6429C20.2866 18.6429 20 18.3562 20 18C20 17.6437 20.2866 17.3571 20.6429 17.3571H22.3571V15.6429C22.3571 15.2866 22.6437 15 23 15C23.3562 15 23.6429 15.2866 23.6429 15.6429V17.3571H25.3571C25.7134 17.3571 26 17.6437 26 18C26 18.3562 25.7134 18.6429 25.3571 18.6429H23.6429V20.3571C23.6429 20.7134 23.3562 21 23 21C22.6437 21 22.3571 20.7134 22.3571 20.3571Z" fill="white"/>
</g>
<defs>
<clipPath id="clip0_474_2125">
<rect width="26" height="21" fill="white" transform="translate(0 0.5)"/>
</clipPath>
</defs>
</svg>
