<svg width="26" height="22" viewBox="0 0 26 22" fill="none" xmlns="http://www.w3.org/2000/svg">
<g clip-path="url(#clip0_474_2508)">
<path d="M2.86897 1C1.28655 1 0 2.28655 0 3.86897V5.30345H25.8207V3.86897C25.8207 2.28655 24.5341 1 22.9517 1H2.86897ZM25.8207 9.6069H0V18.2138C0 19.7962 1.28655 21.0828 2.86897 21.0828H17.7241V17.8966C17.7241 15.1351 19.9627 12.8966 22.7241 12.8966H25.8207V9.6069ZM5.02069 15.3448H7.88966C8.28414 15.3448 8.6069 15.6676 8.6069 16.0621C8.6069 16.4566 8.28414 16.7793 7.88966 16.7793H5.02069C4.62621 16.7793 4.30345 16.4566 4.30345 16.0621C4.30345 15.6676 4.62621 15.3448 5.02069 15.3448ZM10.0414 16.0621C10.0414 15.6676 10.3641 15.3448 10.7586 15.3448H15.4966C15.891 15.3448 16.2138 15.6676 16.2138 16.0621C16.2138 16.4566 15.891 16.7793 15.4966 16.7793H10.7586C10.3641 16.7793 10.0414 16.4566 10.0414 16.0621Z" fill="white"/>
<path d="M20 16.4286C20 16.1915 20.1915 16 20.4286 16H25.5714C25.8085 16 26 16.1915 26 16.4286C26 16.6656 25.8085 16.8571 25.5714 16.8571H20.4286C20.1915 16.8571 20 16.6656 20 16.4286ZM20 18.5714C20 18.3344 20.1915 18.1429 20.4286 18.1429H25.5714C25.8085 18.1429 26 18.3344 26 18.5714C26 18.8085 25.8085 19 25.5714 19H20.4286C20.1915 19 20 18.8085 20 18.5714ZM26 20.7143C26 20.9513 25.8085 21.1429 25.5714 21.1429H20.4286C20.1915 21.1429 20 20.9513 20 20.7143C20 20.4772 20.1915 20.2857 20.4286 20.2857H25.5714C25.8085 20.2857 26 20.4772 26 20.7143Z" fill="white"/>
</g>
<defs>
<clipPath id="clip0_474_2508">
<rect width="26" height="21" fill="white" transform="translate(0 0.5)"/>
</clipPath>
</defs>
</svg>
