<svg width="26" height="22" viewBox="0 0 26 22" fill="none" xmlns="http://www.w3.org/2000/svg">
<g clip-path="url(#clip0_474_2542)">
<path d="M2.86897 1C1.28655 1 0 2.28655 0 3.86897V5.30345H25.8207V3.86897C25.8207 2.28655 24.5341 1 22.9517 1H2.86897ZM25.8207 9.6069H0V18.2138C0 19.7962 1.28655 21.0828 2.86897 21.0828H17.7241V17.8966C17.7241 15.1351 19.9627 12.8966 22.7241 12.8966H25.8207V9.6069ZM5.02069 15.3448H7.88966C8.28414 15.3448 8.6069 15.6676 8.6069 16.0621C8.6069 16.4566 8.28414 16.7793 7.88966 16.7793H5.02069C4.62621 16.7793 4.30345 16.4566 4.30345 16.0621C4.30345 15.6676 4.62621 15.3448 5.02069 15.3448ZM10.0414 16.0621C10.0414 15.6676 10.3641 15.3448 10.7586 15.3448H15.4966C15.891 15.3448 16.2138 15.6676 16.2138 16.0621C16.2138 16.4566 15.891 16.7793 15.4966 16.7793H10.7586C10.3641 16.7793 10.0414 16.4566 10.0414 16.0621Z" fill="white"/>
<path d="M25.364 16.136C25.5453 16.3173 25.5453 16.6118 25.364 16.7932L22.6501 19.5071C22.4688 19.6884 22.1743 19.6884 21.9929 19.5071L20.136 17.6501C19.9547 17.4688 19.9547 17.1743 20.136 16.9929C20.3173 16.8116 20.6118 16.8116 20.7932 16.9929L22.3223 18.5206L24.7083 16.136C24.8896 15.9547 25.1827 15.9547 25.364 16.136Z" fill="white"/>
</g>
<defs>
<clipPath id="clip0_474_2542">
<rect width="26" height="21" fill="white" transform="translate(0 0.5)"/>
</clipPath>
</defs>
</svg>
