<svg width="26" height="22" viewBox="0 0 26 22" fill="none" xmlns="http://www.w3.org/2000/svg">
<g clip-path="url(#clip0_182_509)">
<path d="M2.88889 0.5C1.29549 0.5 0 1.79549 0 3.38889V4.83333H26V3.38889C26 1.79549 24.7045 0.5 23.1111 0.5H2.88889ZM26 9.16667H0V17.8333C0 19.4267 1.29549 20.7222 2.88889 20.7222H23.1111C24.7045 20.7222 26 19.4267 26 17.8333V9.16667ZM5.05556 14.9444H7.94444C8.34167 14.9444 8.66667 15.2694 8.66667 15.6667C8.66667 16.0639 8.34167 16.3889 7.94444 16.3889H5.05556C4.65833 16.3889 4.33333 16.0639 4.33333 15.6667C4.33333 15.2694 4.65833 14.9444 5.05556 14.9444ZM10.1111 15.6667C10.1111 15.2694 10.4361 14.9444 10.8333 14.9444H16.6111C17.0083 14.9444 17.3333 15.2694 17.3333 15.6667C17.3333 16.0639 17.0083 16.3889 16.6111 16.3889H10.8333C10.4361 16.3889 10.1111 16.0639 10.1111 15.6667Z" fill="white"/>
</g>
<defs>
<clipPath id="clip0_182_509">
<rect width="26" height="21" fill="white" transform="translate(0 0.5)"/>
</clipPath>
</defs>
</svg>
