<svg width="26" height="26" viewBox="0 0 26 26" fill="none" xmlns="http://www.w3.org/2000/svg">
<g clip-path="url(#clip0_182_517)">
<path d="M14.0835 3.02778V3.50173C14.3724 3.5559 14.6522 3.62361 14.905 3.69132C15.4828 3.84479 15.8259 4.44062 15.6724 5.0184C15.5189 5.59618 14.9231 5.93923 14.3453 5.78576C13.8533 5.65486 13.3929 5.56458 12.9821 5.56007C12.6526 5.55555 12.3185 5.6368 12.1064 5.75868C12.0116 5.81736 11.9664 5.86701 11.9484 5.8941C11.9349 5.91667 11.9168 5.94826 11.9168 6.02048C11.9168 6.03403 11.9168 6.04305 11.9168 6.04757C11.9258 6.05659 11.9574 6.10173 12.0658 6.16493C12.3276 6.32291 12.7158 6.44479 13.3026 6.62083L13.3432 6.63437C13.8442 6.78333 14.5123 6.98646 15.054 7.325C15.6724 7.71319 16.2321 8.35868 16.2457 9.35173C16.2592 10.3674 15.7311 11.1076 15.0404 11.541C14.738 11.726 14.413 11.8569 14.079 11.9382V12.4167C14.079 13.017 13.596 13.5 12.9956 13.5C12.3953 13.5 11.9123 13.017 11.9123 12.4167V11.9021C11.4835 11.7983 11.0907 11.6628 10.7567 11.55C10.6619 11.5184 10.5716 11.4868 10.4859 11.4597C9.91712 11.2701 9.61017 10.6562 9.79976 10.0875C9.98935 9.51875 10.6032 9.2118 11.172 9.40139C11.2894 9.44201 11.3977 9.47812 11.5015 9.51423C12.1154 9.72187 12.5578 9.87083 13.0317 9.88889C13.3929 9.90243 13.7133 9.81666 13.8984 9.70382C13.9842 9.64965 14.0248 9.60451 14.0429 9.57291C14.0609 9.54583 14.0835 9.49166 14.079 9.38785V9.37882C14.079 9.33368 14.079 9.28403 13.8984 9.17118C13.6411 9.00868 13.2529 8.88229 12.6751 8.70625L12.5894 8.67916C12.1019 8.53472 11.4609 8.34062 10.9463 8.02917C10.3369 7.66354 9.75011 7.03611 9.74559 6.03854C9.74108 5.00486 10.3279 4.29618 10.996 3.89896C11.2848 3.72743 11.5963 3.61007 11.9078 3.52882V3.02778C11.9078 2.42743 12.3908 1.94444 12.9911 1.94444C13.5915 1.94444 14.0745 2.42743 14.0745 3.02778H14.0835ZM25.6482 17.1247C26.2395 17.9281 26.068 19.0566 25.2645 19.6479L19.5499 23.8594C18.4936 24.6358 17.2207 25.0556 15.9071 25.0556H1.44446C0.645493 25.0556 0 24.4101 0 23.6111V20.7222C0 19.9233 0.645493 19.2778 1.44446 19.2778H3.10559L5.13235 17.6528C6.15701 16.8312 7.42994 16.3889 8.7435 16.3889H15.8891C16.688 16.3889 17.3335 17.0344 17.3335 17.8333C17.3335 18.6323 16.688 19.2778 15.8891 19.2778H12.2779C11.8807 19.2778 11.5557 19.6028 11.5557 20C11.5557 20.3972 11.8807 20.7222 12.2779 20.7222H17.7217L23.1249 16.741C23.9284 16.1496 25.0569 16.3212 25.6482 17.1247ZM8.73899 19.2778H8.69836C8.7119 19.2778 8.72544 19.2778 8.73899 19.2778Z" fill="white"/>
<path d="M21.1429 10.1429V7.85714H18.8571C18.3821 7.85714 18 7.475 18 7C18 6.525 18.3821 6.14286 18.8571 6.14286H21.1429V3.85714C21.1429 3.38214 21.525 3 22 3C22.475 3 22.8571 3.38214 22.8571 3.85714V6.14286H25.1429C25.6179 6.14286 26 6.525 26 7C26 7.475 25.6179 7.85714 25.1429 7.85714H22.8571V10.1429C22.8571 10.6179 22.475 11 22 11C21.525 11 21.1429 10.6179 21.1429 10.1429Z" fill="white"/>
</g>
<defs>
<clipPath id="clip0_182_517">
<rect width="26" height="25" fill="white" transform="translate(0 0.5)"/>
</clipPath>
</defs>
</svg>
