<svg width="26" height="26" viewBox="0 0 26 26" fill="none" xmlns="http://www.w3.org/2000/svg">
<g clip-path="url(#clip0_182_532)">
<path d="M14.0835 3.02779V3.50175C14.3724 3.55592 14.6522 3.62362 14.905 3.69133C15.4828 3.84481 15.8259 4.44064 15.6724 5.01842C15.5189 5.59619 14.9231 5.93925 14.3453 5.78578C13.8533 5.65487 13.3929 5.5646 12.9821 5.56008C12.6526 5.55557 12.3185 5.63682 12.1064 5.75869C12.0116 5.81737 11.9664 5.86703 11.9484 5.89411C11.9349 5.91668 11.9168 5.94828 11.9168 6.0205C11.9168 6.03404 11.9168 6.04307 11.9168 6.04758C11.9258 6.05661 11.9574 6.10175 12.0658 6.16494C12.3276 6.32293 12.7158 6.44481 13.3026 6.62085L13.3432 6.63439C13.8442 6.78335 14.5123 6.98647 15.054 7.32501C15.6724 7.71321 16.2321 8.35869 16.2457 9.35175C16.2592 10.3674 15.7311 11.1077 15.0404 11.541C14.738 11.7261 14.413 11.857 14.079 11.9382V12.4167C14.079 13.017 13.596 13.5 12.9956 13.5C12.3953 13.5 11.9123 13.017 11.9123 12.4167V11.9021C11.4835 11.7983 11.0907 11.6629 10.7567 11.55C10.6619 11.5184 10.5716 11.4868 10.4859 11.4597C9.91712 11.2702 9.61017 10.6563 9.79976 10.0875C9.98935 9.51876 10.6032 9.21182 11.172 9.4014C11.2894 9.44203 11.3977 9.47814 11.5015 9.51425C12.1154 9.72189 12.5578 9.87085 13.0317 9.8889C13.3929 9.90244 13.7133 9.81668 13.8984 9.70383C13.9842 9.64967 14.0248 9.60453 14.0429 9.57293C14.0609 9.54585 14.0835 9.49168 14.079 9.38786V9.37883C14.079 9.33369 14.079 9.28404 13.8984 9.17119C13.6411 9.00869 13.2529 8.88231 12.6751 8.70626L12.5894 8.67918C12.1019 8.53474 11.4609 8.34064 10.9463 8.02918C10.3369 7.66356 9.75011 7.03612 9.74559 6.03856C9.74108 5.00487 10.3279 4.29619 10.996 3.89897C11.2848 3.72744 11.5963 3.61008 11.9078 3.52883V3.02779C11.9078 2.42744 12.3908 1.94446 12.9911 1.94446C13.5915 1.94446 14.0745 2.42744 14.0745 3.02779H14.0835ZM25.6482 17.1247C26.2395 17.9281 26.068 19.0566 25.2645 19.6479L19.5499 23.8594C18.4936 24.6358 17.2207 25.0556 15.9071 25.0556H1.44446C0.645493 25.0556 0 24.4101 0 23.6111V20.7222C0 19.9233 0.645493 19.2778 1.44446 19.2778H3.10559L5.13235 17.6528C6.15701 16.8313 7.42994 16.3889 8.7435 16.3889H15.8891C16.688 16.3889 17.3335 17.0344 17.3335 17.8333C17.3335 18.6323 16.688 19.2778 15.8891 19.2778H12.2779C11.8807 19.2778 11.5557 19.6028 11.5557 20C11.5557 20.3972 11.8807 20.7222 12.2779 20.7222H17.7217L23.1249 16.741C23.9284 16.1497 25.0569 16.3212 25.6482 17.1247ZM8.73899 19.2778H8.69836C8.7119 19.2778 8.72544 19.2778 8.73899 19.2778Z" fill="white"/>
<path d="M18 3.57143C18 3.25536 18.2554 3 18.5714 3H25.4286C25.7446 3 26 3.25536 26 3.57143C26 3.8875 25.7446 4.14286 25.4286 4.14286H18.5714C18.2554 4.14286 18 3.8875 18 3.57143ZM18 6.42857C18 6.1125 18.2554 5.85714 18.5714 5.85714H25.4286C25.7446 5.85714 26 6.1125 26 6.42857C26 6.74464 25.7446 7 25.4286 7H18.5714C18.2554 7 18 6.74464 18 6.42857ZM26 9.28571C26 9.60178 25.7446 9.85714 25.4286 9.85714H18.5714C18.2554 9.85714 18 9.60178 18 9.28571C18 8.96964 18.2554 8.71428 18.5714 8.71428H25.4286C25.7446 8.71428 26 8.96964 26 9.28571Z" fill="white"/>
</g>
<defs>
<clipPath id="clip0_182_532">
<rect width="26" height="25" fill="white" transform="translate(0 0.5)"/>
</clipPath>
</defs>
</svg>
