<svg width="26" height="22" viewBox="0 0 26 22" fill="none" xmlns="http://www.w3.org/2000/svg">
<g clip-path="url(#clip0_474_2595)">
<path d="M21.7344 2.26562C21.3525 1.88374 21.3525 1.26624 21.7344 0.888431C22.1163 0.510618 22.7338 0.506556 23.1116 0.888431L25.7116 3.48843C25.8944 3.67124 25.9959 3.91906 25.9959 4.17906C25.9959 4.43906 25.8944 4.68687 25.7116 4.86968L23.1116 7.46968C22.7297 7.85156 22.1122 7.85156 21.7344 7.46968C21.3566 7.08781 21.3525 6.47031 21.7344 6.09249L22.6688 5.15812L15.6 5.14999C15.0597 5.14999 14.625 4.71531 14.625 4.17499C14.625 3.63468 15.0597 3.19999 15.6 3.19999H22.6728L21.7344 2.26562ZM4.26562 15.9156L3.33125 16.85H10.4C10.9403 16.85 11.375 17.2847 11.375 17.825C11.375 18.3653 10.9403 18.8 10.4 18.8H3.32719L4.26156 19.7344C4.64344 20.1162 4.64344 20.7337 4.26156 21.1116C3.87969 21.4894 3.26219 21.4934 2.88438 21.1116L0.284375 18.5156C0.101563 18.3328 0 18.085 0 17.825C0 17.565 0.101563 17.3172 0.284375 17.1344L2.88438 14.5344C3.26625 14.1525 3.88375 14.1525 4.26156 14.5344C4.63938 14.9162 4.64344 15.5337 4.26156 15.9116L4.26562 15.9156ZM3.9 3.19999H13.7272C13.5769 3.49249 13.4875 3.82156 13.4875 4.17499C13.4875 5.34093 14.4341 6.28749 15.6 6.28749H20.3694C20.2069 6.97812 20.3938 7.72968 20.93 8.26999C21.7547 9.09468 23.0913 9.09468 23.9159 8.26999L24.7 7.48593V16.2C24.7 17.6341 23.5341 18.8 22.1 18.8H12.2728C12.4231 18.5075 12.5125 18.1784 12.5125 17.825C12.5125 16.6591 11.5659 15.7125 10.4 15.7125H5.63063C5.79313 15.0219 5.60625 14.2703 5.07 13.73C4.24531 12.9053 2.90875 12.9053 2.08406 13.73L1.3 14.5141V5.79999C1.3 4.36593 2.46594 3.19999 3.9 3.19999ZM6.5 5.79999H3.9V8.39999C5.33406 8.39999 6.5 7.23406 6.5 5.79999ZM22.1 13.6C20.6659 13.6 19.5 14.7659 19.5 16.2H22.1V13.6ZM13 14.9C14.0343 14.9 15.0263 14.4891 15.7577 13.7577C16.4891 13.0263 16.9 12.0343 16.9 11C16.9 9.96565 16.4891 8.97367 15.7577 8.24228C15.0263 7.51089 14.0343 7.09999 13 7.09999C11.9657 7.09999 10.9737 7.51089 10.2423 8.24228C9.51089 8.97367 9.1 9.96565 9.1 11C9.1 12.0343 9.51089 13.0263 10.2423 13.7577C10.9737 14.4891 11.9657 14.9 13 14.9Z" fill="white"/>
</g>
<defs>
<clipPath id="clip0_474_2595">
<rect width="26" height="20.8" fill="white" transform="translate(0 0.600006)"/>
</clipPath>
</defs>
</svg>
