<svg width="26" height="24" viewBox="0 0 26 24" fill="none" xmlns="http://www.w3.org/2000/svg">
<path d="M2.88889 3.33337C1.29549 3.33337 0 4.62886 0 6.22226V17.7778C0 19.3712 1.29549 20.6667 2.88889 20.6667H23.1111C24.7045 20.6667 26 19.3712 26 17.7778V6.22226C26 4.62886 24.7045 3.33337 23.1111 3.33337H2.88889ZM5.77778 17.7778H2.88889V14.8889C4.48229 14.8889 5.77778 16.1844 5.77778 17.7778ZM2.88889 9.11115V6.22226H5.77778C5.77778 7.81567 4.48229 9.11115 2.88889 9.11115ZM20.2222 17.7778C20.2222 16.1844 21.5177 14.8889 23.1111 14.8889V17.7778H20.2222ZM23.1111 9.11115C21.5177 9.11115 20.2222 7.81567 20.2222 6.22226H23.1111V9.11115ZM13 7.66671C14.1493 7.66671 15.2515 8.12325 16.0641 8.93591C16.8768 9.74857 17.3333 10.8508 17.3333 12C17.3333 13.1493 16.8768 14.2515 16.0641 15.0642C15.2515 15.8768 14.1493 16.3334 13 16.3334C11.8507 16.3334 10.7485 15.8768 9.93587 15.0642C9.12321 14.2515 8.66667 13.1493 8.66667 12C8.66667 10.8508 9.12321 9.74857 9.93587 8.93591C10.7485 8.12325 11.8507 7.66671 13 7.66671Z" fill="white"/>
</svg>
